<?xml version="1.0" encoding="UTF-8"?>
<svg width="27px" height="26px" viewBox="0 0 27 26" version="1.1" xmlns="http://www.w3.org/2000/svg" xmlns:xlink="http://www.w3.org/1999/xlink">
    <defs>
        <filter x="-8.3%" y="-4.2%" width="116.7%" height="116.7%" filterUnits="objectBoundingBox" id="filter-1">
            <feOffset dx="0" dy="1" in="SourceAlpha" result="shadowOffsetOuter1"></feOffset>
            <feGaussianBlur stdDeviation="0.5" in="shadowOffsetOuter1" result="shadowBlurOuter1"></feGaussianBlur>
            <feColorMatrix values="0 0 0 0 0   0 0 0 0 0   0 0 0 0 0  0 0 0 0.180281929 0" type="matrix" in="shadowBlurOuter1" result="shadowMatrixOuter1"></feColorMatrix>
            <feMerge>
                <feMergeNode in="shadowMatrixOuter1"></feMergeNode>
                <feMergeNode in="SourceGraphic"></feMergeNode>
            </feMerge>
        </filter>
        <linearGradient x1="50%" y1="0%" x2="50%" y2="100%" id="linearGradient-2">
            <stop stop-color="#83E5FE" offset="0%"></stop>
            <stop stop-color="#00AEFD" offset="100%"></stop>
        </linearGradient>
        <linearGradient x1="50%" y1="0%" x2="50%" y2="100%" id="linearGradient-3">
            <stop stop-color="#FFFFFF" offset="0%"></stop>
            <stop stop-color="#CECECE" offset="100%"></stop>
        </linearGradient>
        <linearGradient x1="50%" y1="11.0857552%" x2="39.3303609%" y2="100%" id="linearGradient-4">
            <stop stop-color="#FFFFFF" offset="0%"></stop>
            <stop stop-color="#CECECE" offset="100%"></stop>
        </linearGradient>
        <linearGradient x1="50%" y1="11.0857552%" x2="50%" y2="85.1715111%" id="linearGradient-5">
            <stop stop-color="#FFFFFF" offset="0%"></stop>
            <stop stop-color="#CECECE" offset="100%"></stop>
        </linearGradient>
        <linearGradient x1="50%" y1="11.0857552%" x2="50%" y2="100%" id="linearGradient-6">
            <stop stop-color="#FFFFFF" offset="0%"></stop>
            <stop stop-color="#CECECE" offset="100%"></stop>
        </linearGradient>
    </defs>
    <g id="Symbols" stroke="none" stroke-width="1" fill="none" fill-rule="evenodd">
        <g id="Group-Copy" transform="translate(-7.000000, -1.000000)">
            <g id="Group-3" transform="translate(8.000000, 1.000000)">
                <g id="Group-Copy" filter="url(#filter-1)" transform="translate(0.615385, 0.000000)" fill="url(#linearGradient-2)">
                    <circle id="Oval" cx="12" cy="12" r="12"></circle>
                </g>
                <g id="Group" transform="translate(3.666667, 6.130120)" stroke-width="0.1" stroke="#13658A">
                    <g id="Group-2">
                        <path d="M5.06423149,0.603719517 C6.55785766,0.603719517 7.76488702,1.84412261 7.76488945,3.37904449 C7.76489084,4.41621942 7.2126614,5.31717469 6.39439609,5.79356682 L6.39371834,5.79321839 L6.32932816,5.82839324 C6.23206011,5.88163125 6.13203023,5.92862691 6.02974466,5.96909227 C6.02964766,5.96913079 6.02950278,5.96905393 6.02940578,5.96909227 C6.02917171,5.96918428 6.02896193,5.96934868 6.02872786,5.96944069 C5.93921209,6.00481257 5.84773994,6.03392928 5.75523937,6.05929306 C5.73291135,6.06534103 5.71068988,6.07158212 5.68813803,6.07705451 C5.64734998,6.08709418 5.60633289,6.09683624 5.56511886,6.10491572 C5.50334476,6.11679271 5.44090106,6.1266817 5.37770969,6.13417008 C5.34967929,6.137591 5.3214766,6.14001086 5.29332474,6.14252845 C5.21765334,6.14904788 5.14156724,6.15436942 5.06423149,6.15436942 C4.98517812,6.15436942 4.90736573,6.1489894 4.83005461,6.14218021 C4.80599007,6.14000409 4.78184466,6.13840428 4.75786999,6.13556306 C4.68992554,6.12770147 4.62287503,6.11679824 4.55656595,6.10387099 C4.52200256,6.09701152 4.48780563,6.08878315 4.45354173,6.08053712 C4.41875173,6.07228717 4.38443646,6.06298589 4.35017863,6.05337257 C4.27323815,6.03151654 4.1969735,6.0066219 4.12210201,5.97779906 C4.11105972,5.97357931 4.09986335,5.96962471 4.08889029,5.96526142 C3.98840615,5.92503197 3.890025,5.878856 3.79439007,5.82630361 L3.73067781,5.79112894 L3.72966101,5.79078052 C2.91387922,5.31370135 2.36357215,4.41431451 2.36357336,3.37904449 C2.36357614,1.84412261 3.57060515,0.603719517 5.06423149,0.603719517 Z" id="Shape" fill="url(#linearGradient-3)" fill-rule="nonzero"></path>
                        <path d="M3.51059001,6.5825964 C3.89589654,6.7806532 4.32043474,6.90799088 4.77033072,6.94678123 C4.86773333,6.95600338 4.96543252,6.9625922 5.0638436,6.9627193 C5.16350753,6.9627193 5.2618128,6.95606173 5.35968311,6.94678123 C5.39430398,6.94378049 5.42887959,6.94085604 5.46320744,6.93681996 C5.87267053,6.88867669 6.25921562,6.76589797 6.61322012,6.58458853 C8.61344353,7.26929676 9.96935326,9.18692567 9.97175335,11.3592356 C9.97175335,11.3592356 9.97175335,11.3592356 9.97175335,11.3592356 L9.97175335,11.3592356 C9.97177098,11.8193799 9.59876464,12.1924148 9.13862036,12.1924325 C9.13860972,12.1924325 9.13859908,12.1924325 9.13858844,12.1924325 L0.994466339,12.1923983 L0.994466339,12.1923978 C0.533422194,12.1923978 0.159024623,11.8198755 0.156709559,11.3588372 C0.156709559,11.3588372 0.156709559,11.3588372 0.156709559,11.3588372 C0.157773778,9.1872225 1.51146182,7.26910887 3.51059001,6.5825964 Z" id="Path" fill="url(#linearGradient-4)"></path>
                        <rect id="Rectangle-2" fill="url(#linearGradient-5)" x="9" y="0.869880073" width="8.83353941" height="2" rx="1"></rect>
                        <rect id="Rectangle-2-Copy-3" fill="url(#linearGradient-6)" x="10.7845534" y="9.86988007" width="7.22744134" height="2" rx="1"></rect>
                        <rect id="Rectangle-2-Copy" fill="url(#linearGradient-6)" x="9" y="3.86988007" width="9.81504379" height="2" rx="1"></rect>
                        <rect id="Rectangle-2-Copy-2" fill="url(#linearGradient-6)" x="10.0573088" y="6.86988007" width="8.75773497" height="2" rx="1"></rect>
                    </g>
                </g>
            </g>
        </g>
    </g>
</svg>