<?xml version="1.0" encoding="UTF-8"?>
<svg width="50px" height="50px" viewBox="0 0 50 50" version="1.1" xmlns="http://www.w3.org/2000/svg" xmlns:xlink="http://www.w3.org/1999/xlink">
    <!-- Generator: Sketch 48.2 (47327) - http://www.bohemiancoding.com/sketch -->
    <title>icon/brain</title>
    <desc>Created with Sketch.</desc>
    <defs></defs>
    <g id="Assets" stroke="none" stroke-width="1" fill="none" fill-rule="evenodd" transform="translate(-425.000000, -297.000000)">
        <g id="icon/brain" transform="translate(425.000000, 296.000000)" stroke="#FFFFFF">
            <g id="Page-1" fill-rule="evenodd" transform="translate(1.000000, 1.040000)">
                <path d="M8.42538667,33.318272 L9.66112,33.318272" id="Stroke-1" stroke-width="0.841" stroke-linecap="round"></path>
                <path d="M2.54048,26.5653306 L7.34954667,26.5653306" id="Stroke-2" stroke-width="0.718333333" stroke-linecap="round"></path>
                <path d="M5.23946667,25.0349337 L5.23946667,28.0961569" id="Stroke-3" stroke-width="0.718333333" stroke-linecap="round"></path>
                <path d="M13.0357867,44.5174214 L15.6293867,44.5174214" id="Stroke-4" stroke-width="0.668666667" stroke-linecap="round"></path>
                <path d="M4.13578667,18.4329868 L6.72992,18.4329868" id="Stroke-5" stroke-width="0.668666667" stroke-linecap="round"></path>
                <path d="M7.8056,10.1150803 L10.3992,10.1150803" id="Stroke-6" stroke-width="0.668666667" stroke-linecap="round"></path>
                <g id="Group-27" transform="translate(0.000000, 0.348527)">
                    <path d="M21.7946667,34.2933223 L21.7946667,44.1686255 L21.752,44.4960578 C21.752,46.5626385 20.072,48.2534772 18.0133333,48.2534772 L16.4826667,48.2534772 C14.4341333,48.2534772 12.7546667,46.5626385 12.7546667,44.4960578 L12.7546667,44.3242901 C12.7546667,44.2384062 12.6853333,44.1686255 12.6,44.1686255 L11.8528,44.1686255 C10.7434667,44.1686255 9.83733333,43.2614772 9.83733333,42.1449868 L9.83733333,40.4541481 C9.83733333,40.1911288 9.89546667,39.9388449 9.992,39.7133997 C10.04,39.6167804 9.976,39.4933223 9.864,39.4933223 L9.46933333,39.4933223 C8.072,39.4933223 6.92533333,38.3446255 6.92533333,36.9382772 L6.92533333,35.2528062 C6.92533333,34.3456578 7.44266667,33.551232 8.1888,33.1379159 C8.328,33.0681352 8.26933333,32.8534255 8.11946667,32.8534255 L5.59733333,32.8534255 C3.61866667,32.8534255 1.992,31.221632 1.992,29.224832 L1.992,27.6950255 C1.992,27.1367804 2.11466667,26.6107417 2.34346667,26.1437481 C1.04266667,25.9075675 0.0554666667,24.7588707 0.0554666667,23.379361 L0.0554666667,20.8243159 C0.0554666667,19.2676707 1.30933333,18.0116191 2.85013333,18.0116191 L4.248,18.0116191 C3.94933333,17.8452191 3.6768,17.6412449 3.43146667,17.3943288 C2.78133333,16.7394643 2.376,15.8323159 2.376,14.8339159 L2.376,13.8301481 C2.376,11.5434901 4.23733333,9.67014813 6.50933333,9.67014813 L7.624,9.67014813 C8.01333333,9.67014813 8.32213333,9.35345135 8.32213333,8.97234168 L8.32213333,8.07592877 C8.32213333,6.08449652 9.94346667,4.44733523 11.928,4.44733523 L12.6,4.44733523 C12.6853333,4.44733523 12.7546667,4.38292232 12.7546667,4.29167071 L12.7546667,4.00181265 C12.7546667,1.92986426 14.4341333,0.24439329 16.4826667,0.24439329 L18.0074667,0.24439329 C20.0666667,0.24439329 21.752,1.935232 21.752,4.00718039 L21.752,4.44733523 L21.7946667,14.9547488" id="Stroke-7" stroke-width="0.736333333"></path>
                    <path d="M40.0290133,32.9697445 L38.79328,32.9697445" id="Stroke-9" stroke-width="0.841" stroke-linecap="round"></path>
                    <path d="M45.91392,26.2168031 L41.1048533,26.2168031" id="Stroke-11" stroke-width="0.718333333" stroke-linecap="round"></path>
                    <path d="M43.2149867,24.6864062 L43.2149867,27.7476294" id="Stroke-13" stroke-width="0.718333333" stroke-linecap="round"></path>
                    <path d="M35.4191467,44.1688939 L32.8250133,44.1688939" id="Stroke-15" stroke-width="0.668666667" stroke-linecap="round"></path>
                    <path d="M44.3186133,18.0844594 L41.7250133,18.0844594" id="Stroke-17" stroke-width="0.668666667" stroke-linecap="round"></path>
                    <path d="M40.6488533,9.76655277 L38.0552533,9.76655277" id="Stroke-19" stroke-width="0.668666667" stroke-linecap="round"></path>
                    <path d="M26.1306133,34.8086255 L26.1306133,44.1686255 L26.1674133,44.4960578 C26.1674133,46.5626385 27.8479467,48.2534772 29.9066133,48.2534772 L31.43728,48.2534772 C33.48528,48.2534772 35.1647467,46.5626385 35.1647467,44.4960578 L35.1647467,44.3242901 C35.1647467,44.2384062 35.2399467,44.1686255 35.3194133,44.1686255 L36.0666133,44.1686255 C37.1759467,44.1686255 38.0826133,43.2614772 38.0826133,42.1449868 L38.0826133,40.4541481 C38.0826133,40.1911288 38.0239467,39.9388449 37.9279467,39.7133997 C37.88528,39.6167804 37.94928,39.4933223 38.06128,39.4933223 L38.4554133,39.4933223 C39.8479467,39.4933223 40.9946133,38.3446255 40.9946133,36.9382772 L40.9946133,35.2528062 C40.9946133,34.3456578 40.4826133,33.551232 39.7306133,33.1379159 C39.5919467,33.0681352 39.6506133,32.8534255 39.80528,32.8534255 L42.32208,32.8534255 C44.3066133,32.8534255 45.93328,31.221632 45.93328,29.224832 L45.93328,27.6950255 C45.93328,27.1367804 45.80528,26.6107417 45.5759467,26.1437481 C46.8767467,25.9075675 47.8639467,24.7588707 47.8639467,23.379361 L47.8639467,20.8243159 C47.8639467,19.2676707 46.6159467,18.0116191 45.06928,18.0116191 L43.6719467,18.0116191 C43.9759467,17.8452191 44.2479467,17.6412449 44.4879467,17.3943288 C45.1386133,16.7394643 45.54928,15.8323159 45.54928,14.8339159 L45.54928,13.8301481 C45.54928,11.5434901 43.6879467,9.67014813 41.41008,9.67014813 L40.2959467,9.67014813 C39.9119467,9.67014813 39.59728,9.35345135 39.59728,8.97234168 L39.59728,8.07592877 C39.59728,6.08449652 37.9759467,4.44733523 35.9919467,4.44733523 L35.3194133,4.44733523 C35.2399467,4.44733523 35.1647467,4.38292232 35.1647467,4.29167071 L35.1647467,4.00181265 C35.1647467,1.92986426 33.48528,0.24439329 31.43728,0.24439329 L29.9119467,0.24439329 C27.8527467,0.24439329 26.1674133,1.935232 26.1674133,4.00718039 L26.1674133,4.44733523 L26.1306133,14.8339159" id="Stroke-21" stroke-width="0.736333333"></path>
                </g>
            </g>
            <rect id="Rectangle" x="20.5" y="18.18" width="9" height="14.6"></rect>
            <path d="M16.5,21.32 L20.5,21.32" id="Line" stroke-linecap="square"></path>
            <path d="M17.5,25.48 L20.5,25.48" id="Line-Copy-2" stroke-linecap="square"></path>
            <path d="M29.5,21.32 L33.5,21.32" id="Line-Copy" stroke-linecap="square"></path>
            <path d="M29.5,25.48 L32.5,25.48" id="Line-Copy-3" stroke-linecap="square"></path>
            <path d="M16.5,29.64 L20.5,29.64" id="Line-Copy-5" stroke-linecap="square"></path>
            <path d="M29.5,29.64 L33.5,29.64" id="Line-Copy-4" stroke-linecap="square"></path>
            <ellipse id="Oval-2" cx="14.5" cy="21.32" rx="1.5" ry="1.56"></ellipse>
            <ellipse id="Oval-2-Copy-2" cx="35.5" cy="21.32" rx="1.5" ry="1.56"></ellipse>
            <ellipse id="Oval-2-Copy" cx="14.5" cy="29.64" rx="1.5" ry="1.56"></ellipse>
            <ellipse id="Oval-2-Copy-3" cx="35.5" cy="29.64" rx="1.5" ry="1.56"></ellipse>
        </g>
    </g>
</svg>