<?xml version="1.0" encoding="UTF-8"?>
<svg width="43px" height="53px" viewBox="0 0 43 53" version="1.1" xmlns="http://www.w3.org/2000/svg" xmlns:xlink="http://www.w3.org/1999/xlink">
    <!-- Generator: Sketch 48.2 (47327) - http://www.bohemiancoding.com/sketch -->
    <title>icon/connectivity</title>
    <desc>Created with Sketch.</desc>
    <defs></defs>
    <g id="Assets" stroke="none" stroke-width="1" fill="none" fill-rule="evenodd" transform="translate(-429.000000, -380.000000)">
        <g id="icon/connectivity" transform="translate(425.000000, 380.000000)" stroke="#FFFFFF">
            <g id="tr-06" transform="translate(5.000000, 1.040000)">
                <path d="M40.7373737,20.6581818 C40.7373737,25.2415874 37.1646965,28.9571717 32.7575758,28.9571717 L7.23232323,28.9571717 C3.23394007,28.9427029 -2.42038707e-05,25.5676366 -1.95769685e-15,21.4092929 L-1.95769685e-15,20.6581818 C-0.00224007007,16.994374 2.52577951,13.8580111 5.99494949,13.2206061 C6.27666917,13.162649 6.49981602,12.9387912 6.56565657,12.6480808 C7.37545094,9.25437724 10.3045115,6.87113022 13.6666667,6.87030303 L13.7121212,6.87030303 C13.9706738,6.87411693 14.2114587,6.73388377 14.3434343,6.50262626 C17.113851,1.59194833 22.7054098,-0.777921384 27.9870813,0.720041002 C33.2687529,2.21800339 36.9293886,7.21193624 36.9191919,12.9054545 C36.9191919,13.1120539 36.9191919,13.3186532 36.9191919,13.5252525 C36.9054327,13.8050012 37.0414612,14.0697514 37.2727273,14.2133333 C39.4295842,15.5859386 40.7426222,18.0284189 40.7373737,20.6581818 Z" id="Shape" stroke-width="0.946666667"></path>
                <path d="M6.66666667,16.0674747 C6.12305315,13.8828876 6.5820404,11.5596343 7.9098351,9.774936 C9.2376298,7.99023767 11.2847791,6.94497487 13.4545455,6.94383838 C13.6734007,6.94383838 13.8905724,6.95434343 14.1060606,6.97535354" id="Shape" stroke-width="0.893333333" stroke-linecap="round"></path>
                <path d="M36.7777778,11.4032323 C36.814843,11.7521277 36.8350704,12.1027359 36.8383838,12.4537374 C36.8622281,14.5044446 36.2977958,16.516004 35.2171717,18.2315152" id="Shape" stroke-width="0.766666667" stroke-linecap="round"></path>
                <polyline id="Shape" stroke-width="0.893333333" stroke-linecap="round" stroke-linejoin="round" points="13.7878788 29.2618182 13.7878788 41.4581818 7.32828283 41.4581818"></polyline>
                <ellipse id="Oval" stroke-width="0.893333333" stroke-linecap="round" cx="5.28282828" cy="41.4791919" rx="1.70707071" ry="1.77535354"></ellipse>
                <ellipse id="Oval" stroke-width="0.893333333" stroke-linecap="round" cx="20.3434343" cy="49.4367677" rx="1.70707071" ry="1.77535354"></ellipse>
                <polyline id="Shape" stroke-width="0.893333333" stroke-linecap="round" stroke-linejoin="round" points="26.6515152 29.2618182 26.6515152 41.4581818 32.2525253 41.4581818"></polyline>
                <ellipse id="Oval" stroke-width="0.893333333" stroke-linecap="round" cx="34.1515152" cy="41.4791919" rx="1.70707071" ry="1.77535354"></ellipse>
                <path d="M20.1111111,29.5822222 L20.1111111,46.9943434" id="Shape" stroke-width="0.893333333" stroke-linecap="round" stroke-linejoin="round"></path>
            </g>
            <g id="Page-1" transform="translate(20.000000, 11.440000)">
                <path d="M7.34274674,13.5199823 C7.57498529,13.5048867 7.71106256,13.3520441 7.79270893,13.1727843 L8.14650984,11.8689049 C8.3733053,11.7896532 8.58921457,11.6896451 8.80149512,11.5820892 L9.94817295,12.2444071 C10.1223519,12.3481891 10.3636622,12.3123371 10.5051826,12.1613815 L11.6935908,10.9254321 C11.8351111,10.7763634 11.864141,10.5329474 11.7661653,10.3518006 L11.1365811,9.16679879 C11.2418142,8.9479131 11.3343468,8.71770574 11.4123644,8.47995059 L12.6679041,8.10256147 C12.8565979,8.04595311 12.9999326,7.84971076 12.9999326,7.64214675 L12.9999326,5.8854004 C13.0035613,5.67594943 12.8602266,5.4759332 12.6679041,5.41743789 L11.4123644,5.04759655 C11.3343468,4.8098414 11.2418142,4.58152099 11.1365811,4.36074835 L11.7661653,3.17763346 C11.864141,2.99648668 11.8351111,2.75118376 11.6935908,2.60211505 L10.5051826,1.36616569 C10.3636622,1.21521004 10.1223519,1.17935807 9.94817295,1.28314008 L8.80875257,1.93979715 C8.59465766,1.82846736 8.37511966,1.73978092 8.14650984,1.6605292 L7.79270893,0.354762847 C7.73827802,0.152859668 7.54414111,-0.00186987088 7.34274674,1.70747147e-05 L5.65901727,1.70747147e-05 C5.4576229,1.70747147e-05 5.26348599,0.152859668 5.20905508,0.354762847 L4.85343981,1.6605292 C4.62664435,1.73978092 4.40529199,1.82846736 4.1948258,1.93979715 L3.05540543,1.28314008 C2.87941215,1.17935807 2.63810179,1.21521004 2.49658142,1.36616569 L1.30635886,2.60211505 C1.16846723,2.75118376 1.13580868,2.99648668 1.23378432,3.17763346 L1.86518287,4.36074835 C1.75813541,4.58152099 1.66741723,4.8098414 1.58939959,5.04759655 L0.335674309,5.41743789 C0.141537398,5.4759332 -0.00179733089,5.67594943 1.70327636e-05,5.8854004 L1.70327636e-05,7.64214675 C0.00364576007,7.84971076 0.143351761,8.04595311 0.335674309,8.10256147 L1.58939959,8.47995059 C1.66560287,8.71770574 1.75994978,8.9479131 1.86518287,9.16679879 L1.23378432,10.3518006 C1.13580868,10.5329474 1.16846723,10.7763634 1.30635886,10.9254321 L2.49658142,12.1613815 C2.63810179,12.3123371 2.87941215,12.3481891 3.05540543,12.2444071 L4.20208326,11.5820892 C4.41254944,11.6896451 4.62845871,11.7896532 4.85343981,11.8689049 L5.20905508,13.1727843 C5.26530036,13.3728005 5.45943727,13.5218692 5.65901727,13.5199823 L7.34274674,13.5199823 Z" id="Stroke-1"></path>
                <path d="M6.5,9.36 C7.87526652,9.36 9,8.19069272 9,6.75907638 C9,5.32930728 7.87526652,4.16 6.5,4.16 C5.12473348,4.16 4,5.32930728 4,6.75907638 C4,8.19069272 5.12473348,9.36 6.5,9.36 Z" id="Stroke-3"></path>
            </g>
        </g>
    </g>
</svg>