<?xml version="1.0" encoding="UTF-8"?>
<svg width="28px" height="28px" viewBox="0 0 28 28" version="1.1" xmlns="http://www.w3.org/2000/svg" xmlns:xlink="http://www.w3.org/1999/xlink">
    <!-- Generator: Sketch 47.1 (45422) - http://www.bohemiancoding.com/sketch -->
    <title>Icon/error_vector</title>
    <desc>Created with Sketch.</desc>
    <defs>
        <path d="M14.6,20.2 L17.4,20.2 L17.4,23 L14.6,23 L14.6,20.2 Z M14.6,9 L17.4,9 L17.4,17.4 L14.6,17.4 L14.6,9 Z M15.986,2 C8.258,2 2,8.272 2,16 C2,23.728 8.258,30 15.986,30 C23.728,30 30,23.728 30,16 C30,8.272 23.728,2 15.986,2 L15.986,2 Z M16,27.2 C9.812,27.2 4.8,22.188 4.8,16 C4.8,9.812 9.812,4.8 16,4.8 C22.188,4.8 27.2,9.812 27.2,16 C27.2,22.188 22.188,27.2 16,27.2 L16,27.2 Z" id="path-1"></path>
    </defs>
    <g id="Mobile_App" stroke="none" stroke-width="1" fill="none" fill-rule="evenodd">
        <g id="Assets" transform="translate(-185.000000, -294.000000)">
            <g id="Icon/error" transform="translate(183.000000, 292.000000)">
                <polygon id="Shape" points="0 0 32 0 32 32 0 32"></polygon>
                <mask id="mask-2" fill="white">
                    <use xlink:href="#path-1"></use>
                </mask>
                <use id="Shape" fill="#000000" xlink:href="#path-1"></use>
                <g id="Colour/Success" mask="url(#mask-2)" fill="#E54D42">
                    <rect id="Rectangle" x="0" y="0" width="32" height="32"></rect>
                </g>
            </g>
        </g>
    </g>
</svg>