<?xml version="1.0" encoding="UTF-8"?>
<svg width="27px" height="27px" viewBox="0 0 27 27" version="1.1" xmlns="http://www.w3.org/2000/svg" xmlns:xlink="http://www.w3.org/1999/xlink">
    <defs>
        <filter x="-8.0%" y="-4.0%" width="116.0%" height="116.0%" filterUnits="objectBoundingBox" id="filter-1">
            <feOffset dx="0" dy="1" in="SourceAlpha" result="shadowOffsetOuter1"></feOffset>
            <feGaussianBlur stdDeviation="0.5" in="shadowOffsetOuter1" result="shadowBlurOuter1"></feGaussianBlur>
            <feColorMatrix values="0 0 0 0 0   0 0 0 0 0   0 0 0 0 0  0 0 0 0.180281929 0" type="matrix" in="shadowBlurOuter1" result="shadowMatrixOuter1"></feColorMatrix>
            <feMerge>
                <feMergeNode in="shadowMatrixOuter1"></feMergeNode>
                <feMergeNode in="SourceGraphic"></feMergeNode>
            </feMerge>
        </filter>
        <linearGradient x1="50%" y1="0%" x2="50%" y2="100%" id="linearGradient-2">
            <stop stop-color="#83E5FE" offset="0%"></stop>
            <stop stop-color="#00AEFD" offset="100%"></stop>
        </linearGradient>
        <linearGradient x1="31.1491811%" y1="50%" x2="50%" y2="69.9622505%" id="linearGradient-3">
            <stop stop-color="#FFFFFF" offset="0%"></stop>
            <stop stop-color="#CCCCCC" offset="100%"></stop>
        </linearGradient>
        <linearGradient x1="50%" y1="24.7351233%" x2="50%" y2="60.8494564%" id="linearGradient-4">
            <stop stop-color="#FFFFFF" offset="0%"></stop>
            <stop stop-color="#DADADA" offset="100%"></stop>
        </linearGradient>
        <linearGradient x1="50%" y1="34.6697523%" x2="35.6463439%" y2="50%" id="linearGradient-5">
            <stop stop-color="#FFFFFF" offset="0%"></stop>
            <stop stop-color="#CECECE" offset="100%"></stop>
        </linearGradient>
    </defs>
    <g id="Symbols" stroke="none" stroke-width="1" fill="none" fill-rule="evenodd">
        <g id="tool-bar-text" transform="translate(-7.000000, 0.000000)">
            <g id="Group" filter="url(#filter-1)" transform="translate(8.000000, 0.000000)">
                <circle id="Oval" fill="url(#linearGradient-2)" cx="12.8" cy="12.8" r="12"></circle>
                <path d="M14.634386,13.4545418 L14.634386,13.4545418 C14.5597193,13.4545418 14.4884211,13.4242692 14.4359298,13.370067 L13.2449123,12.1467687 C13.1354386,12.0343279 13.1354386,11.8518278 13.2449123,11.7390987 L15.0312982,9.90429546 C15.1410526,9.79185465 15.3184561,9.79185465 15.4282105,9.90429546 L16.6192281,11.1275937 C16.672,11.1815077 16.7014737,11.2550267 16.7014737,11.3314287 C16.7014737,11.4081191 16.672,11.4813498 16.6192281,11.5352637 L14.8328421,13.370067 C14.7800702,13.4242692 14.7087719,13.4545418 14.634386,13.4545418 L14.634386,13.4545418 Z" id="Shape" stroke="#13658A" stroke-width="0.1" fill="url(#linearGradient-3)" fill-rule="nonzero"></path>
                <path d="M10.8631579,17.3279833 C10.7912982,17.3279833 10.7194386,17.299729 10.6647018,17.2435086 L9.47368421,16.0204986 C9.42091228,15.9662964 9.3914386,15.8930657 9.3914386,15.8163753 C9.3914386,15.7399732 9.42091228,15.6667425 9.47368421,15.6125403 L12.0538947,12.962397 C12.1636491,12.8496679 12.3413333,12.8496679 12.450807,12.962397 L13.6421053,14.185407 C13.6945965,14.2396092 13.7243509,14.3128399 13.7243509,14.3895303 C13.7243509,14.4659324 13.6945965,14.5391631 13.6421053,14.5933653 L11.061614,17.2435086 C11.0068772,17.299729 10.9350175,17.3279833 10.8631579,17.3279833 L10.8631579,17.3279833 Z" id="Shape" stroke="#13658A" stroke-width="0.1" fill="url(#linearGradient-3)" fill-rule="nonzero"></path>
                <path d="M7.75803509,20.3840667 C7.67157895,20.3471631 7.60870175,20.2684545 7.59045614,20.1738889 C7.57249123,20.0796116 7.60112281,19.9821629 7.66736842,19.9141218 L8.87831579,18.6706418 L8.08421053,17.8553019 L6.89347368,19.0783118 C6.82722807,19.1463529 6.73207018,19.1760488 6.6402807,19.1573087 C6.54849123,19.1385686 6.47185965,19.0742755 6.43592982,18.9854761 C6.02498246,17.9726439 6.19592982,16.940495 6.89347368,16.2243336 C7.37038596,15.734207 8.00505263,15.4643491 8.67957895,15.4643491 C9.35438596,15.4643491 9.98905263,15.734207 10.4659649,16.2243336 C10.9431579,16.7141719 11.2061754,17.3660402 11.2061754,18.0591369 C11.2061754,18.7522335 10.9431579,19.4038136 10.4659649,19.8939401 C10.0129123,20.3592721 9.43663158,20.6054886 8.8002807,20.6054886 C8.45136842,20.6054886 8.10077193,20.5311047 7.75803509,20.3840667 Z" id="Shape" stroke="#13658A" stroke-width="0.1" fill="url(#linearGradient-4)" fill-rule="nonzero"></path>
                <path d="M17.4225965,11.6941224 C16.7480702,11.6941224 16.1105965,11.4205165 15.6269474,10.9237587 C15.149193,10.4330555 14.882807,9.78580015 14.8769123,9.1016411 C14.8712982,8.4128691 15.1301053,7.76417215 15.6070175,7.27462219 C16.3017544,6.56076724 17.3167719,6.38576322 18.2952982,6.80467729 C18.3814737,6.84158094 18.4443509,6.9202895 18.4625965,7.0148551 C18.4808421,7.10913239 18.4519298,7.20658109 18.3856842,7.27462219 L17.2145965,8.47745048 L18.0084211,9.29279047 L19.1994386,8.06949218 C19.2659649,8.00173939 19.3611228,7.97175517 19.4526316,7.99078362 C19.5444211,8.00923544 19.6210526,8.07381683 19.6569825,8.16261623 C20.0679298,9.17516009 19.8894035,10.2150934 19.1795088,10.9442287 C18.7087719,11.4277242 18.0847719,11.6941224 17.4225965,11.6941224 L17.4225965,11.6941224 Z" id="Shape" stroke="#13658A" stroke-width="0.1" fill="url(#linearGradient-4)" fill-rule="nonzero"></path>
                <path d="M18.5754386,19.59035 C18.2753684,19.59035 17.9935439,19.4704131 17.781614,19.2527392 L8.48140351,9.70046046 L10.0690526,8.06949218 L19.3692632,17.621771 C19.5814737,17.8394448 19.6982456,18.1291961 19.6982456,18.4371109 C19.6982456,18.7453141 19.5814737,19.0347771 19.3692632,19.2527392 C19.1570526,19.4704131 18.8752281,19.59035 18.5754386,19.59035 L18.5754386,19.59035 Z" id="Shape" stroke="#13658A" stroke-width="0.1" fill="url(#linearGradient-5)" fill-rule="nonzero"></path>
                <path d="M6.29810526,12.9546127 C6.16533333,12.9546127 6.04042105,12.9015637 5.94666667,12.8052682 L4.26750877,11.0808876 C4.07382456,10.8819538 4.07382456,10.5578937 4.26722807,10.3589599 L4.95382456,9.65375428 C5.14133333,9.46116337 5.46919298,9.46087506 5.65670175,9.65375428 L5.80996491,9.81117141 C5.84280702,9.84461534 5.88098246,9.84980491 5.90063158,9.84980491 C5.92084211,9.84980491 5.95901754,9.84461534 5.99185965,9.81117141 L6.74049123,9.04224929 C6.64196491,8.75509278 6.67873684,8.29004914 7.31649123,7.63500938 L9.10315789,5.80020611 C9.13515789,5.75897781 10.314386,4.35923395 13.4057544,4.2897513 L13.6297544,4.28485004 L13.7521404,4.73807297 L13.5531228,4.8571449 C12.4684912,5.44126046 10.6599298,6.7311583 10.7511579,7.86681042 C10.7660351,8.05363515 10.7054035,8.23152226 10.5849825,8.35520715 L9.31087719,9.66413343 C9.22133333,9.77369114 8.7365614,10.3370484 8.21277193,10.3370484 C8.11115789,10.3370484 8.01375439,10.3162901 7.92308772,10.2756384 C7.92280702,10.2753501 7.92252632,10.2753501 7.92224561,10.2750618 L7.18287719,11.0341814 C7.13263158,11.0857888 7.13263158,11.1693987 7.18287719,11.2210061 L7.33585965,11.3781349 C7.52954386,11.577357 7.52926316,11.9011288 7.33614035,12.1000625 L6.64926316,12.8052682 C6.55550877,12.9015637 6.43087719,12.9546127 6.29810526,12.9546127 L6.29810526,12.9546127 Z" id="Shape" stroke="#13658A" stroke-width="0.1" fill="url(#linearGradient-4)" fill-rule="nonzero"></path>
            </g>
        </g>
    </g>
</svg>