<?xml version="1.0" encoding="UTF-8"?>
<svg width="26px" height="26px" viewBox="0 0 26 26" version="1.1" xmlns="http://www.w3.org/2000/svg" xmlns:xlink="http://www.w3.org/1999/xlink">
    <defs>
        <filter x="-8.3%" y="-4.2%" width="116.7%" height="116.7%" filterUnits="objectBoundingBox" id="filter-1">
            <feOffset dx="0" dy="1" in="SourceAlpha" result="shadowOffsetOuter1"></feOffset>
            <feGaussianBlur stdDeviation="0.5" in="shadowOffsetOuter1" result="shadowBlurOuter1"></feGaussianBlur>
            <feColorMatrix values="0 0 0 0 0   0 0 0 0 0   0 0 0 0 0  0 0 0 0.180281929 0" type="matrix" in="shadowBlurOuter1" result="shadowMatrixOuter1"></feColorMatrix>
            <feMerge>
                <feMergeNode in="shadowMatrixOuter1"></feMergeNode>
                <feMergeNode in="SourceGraphic"></feMergeNode>
            </feMerge>
        </filter>
        <linearGradient x1="50%" y1="0%" x2="50%" y2="100%" id="linearGradient-2">
            <stop stop-color="#83E5FE" offset="0%"></stop>
            <stop stop-color="#00AEFD" offset="100%"></stop>
        </linearGradient>
        <linearGradient x1="50%" y1="11.0857552%" x2="39.3303609%" y2="100%" id="linearGradient-3">
            <stop stop-color="#FFFFFF" offset="0%"></stop>
            <stop stop-color="#CECECE" offset="100%"></stop>
        </linearGradient>
    </defs>
    <g id="Symbols" stroke="none" stroke-width="1" fill="none" fill-rule="evenodd">
        <g id="Group-Copy-2" transform="translate(-7.000000, -1.000000)">
            <g id="Group-2" transform="translate(8.000000, 1.000000)">
                <g id="Group-Copy" filter="url(#filter-1)" fill="url(#linearGradient-2)">
                    <circle id="Oval" cx="12" cy="12" r="12"></circle>
                </g>
                <g id="noun_666311_cc" transform="translate(6.000000, 4.000000)" stroke="#13658A" stroke-width="0.1" fill="url(#linearGradient-3)" fill-rule="nonzero">
                    <path d="M10.5,6.564 C10.5,6.72 10.4355,6.8535 10.3365,6.9555 L6.879,10.167 C6.3975,10.6125 5.6175,10.6125 5.136,10.167 L1.641,6.921 C1.557,6.8235 1.4985,6.7035 1.4985,6.564 C1.4985,6.2535 1.752,6.003 2.0625,6.003 L4.5,6.003 L4.5,1.5 C4.5,0.672 5.1705,0 6,0 C6.828,0 7.5,0.672 7.5,1.5 L7.5,6.003 L9.9405,6.003 C10.248,6.003 10.5,6.2535 10.5,6.564 Z M10.5,12.0015 L1.4985,12.0015 C0.6705,12.0015 0,12.6705 0,13.5 C0,14.328 0.6705,15 1.4985,15 L10.5,15 C11.3295,15 12,14.328 12,13.5 C12,12.6705 11.3295,12.0015 10.5,12.0015 Z" id="Shape"></path>
                </g>
            </g>
        </g>
    </g>
</svg>