<?xml version="1.0" encoding="UTF-8"?>
<svg width="16px" height="30px" viewBox="0 0 16 30" version="1.1" xmlns="http://www.w3.org/2000/svg" xmlns:xlink="http://www.w3.org/1999/xlink">
    <!-- Generator: Sketch 48.2 (47327) - http://www.bohemiancoding.com/sketch -->
    <title>Icon/mobile_phone</title>
    <desc>Created with Sketch.</desc>
    <defs>
        <path d="M10.6666667,1.77777778 L21.3333333,1.77777778 C22.8060927,1.77777778 24,2.97168511 24,4.44444444 L24,27.5555556 C24,29.0283149 22.8060927,30.2222222 21.3333333,30.2222222 L10.6666667,30.2222222 C9.19390733,30.2222222 8,29.0283149 8,27.5555556 L8,4.44444444 C8,2.97168511 9.19390733,1.77777778 10.6666667,1.77777778 Z M10.6666667,3.55555556 C10.1757469,3.55555556 9.77777778,3.95352467 9.77777778,4.44444444 L9.77777778,27.5555556 C9.77777778,28.0464753 10.1757469,28.4444444 10.6666667,28.4444444 L21.3333333,28.4444444 C21.8242531,28.4444444 22.2222222,28.0464753 22.2222222,27.5555556 L22.2222222,4.44444444 C22.2222222,3.95352467 21.8242531,3.55555556 21.3333333,3.55555556 L10.6666667,3.55555556 Z M13.7777778,6.22222222 C13.5323179,6.22222222 13.3333333,6.02323767 13.3333333,5.77777778 C13.3333333,5.53231789 13.5323179,5.33333333 13.7777778,5.33333333 L18.2957889,5.33333333 C18.5412488,5.33333333 18.7402334,5.53231789 18.7402334,5.77777778 C18.7402334,6.02323767 18.5412488,6.22222222 18.2957889,6.22222222 L13.7777778,6.22222222 Z" id="path-1"></path>
    </defs>
    <g id="Assets" stroke="none" stroke-width="1" fill="none" fill-rule="evenodd" transform="translate(-543.000000, -369.000000)">
        <g id="Icon/mobile_phone" transform="translate(535.000000, 368.000000)">
            <rect id="Bounding-Box" x="0" y="0" width="32" height="32"></rect>
            <mask id="mask-2" fill="white">
                <use xlink:href="#path-1"></use>
            </mask>
            <use id="Combined-Shape" fill="#FFFFFF" fill-rule="nonzero" xlink:href="#path-1"></use>
            <g id="Colour/Fill/primary" mask="url(#mask-2)" fill="#F15A22" fill-rule="evenodd">
                <rect id="Rectangle" x="0" y="0" width="32" height="32"></rect>
            </g>
        </g>
    </g>
</svg>