<?xml version="1.0" encoding="UTF-8"?>
<svg width="102px" height="87px" viewBox="0 0 102 87" version="1.1" xmlns="http://www.w3.org/2000/svg" xmlns:xlink="http://www.w3.org/1999/xlink">
    <!-- Generator: Sketch 47.1 (45422) - http://www.bohemiancoding.com/sketch -->
    <title>Icon/Profile_vector</title>
    <desc>Created with Sketch.</desc>
    <defs>
        <circle id="path-1" cx="84" cy="69" r="15"></circle>
    </defs>
    <g id="Mobile_App" stroke="none" stroke-width="1" fill="none" fill-rule="evenodd">
        <g id="Assets" transform="translate(-195.000000, -481.000000)">
            <g id="Icon/Profile" transform="translate(195.000000, 481.000000)">
                <rect id="Rectangle" fill="#333333" x="0" y="0" width="93" height="78" rx="9"></rect>
                <g id="Oval">
                    <use fill="#F15A22" fill-rule="evenodd" xlink:href="#path-1"></use>
                    <circle stroke="#FFFFFF" stroke-width="3" cx="84" cy="69" r="16.5"></circle>
                </g>
                <path d="M85,69 L85,62.5769231 L85,62 L84,62 L84,62.5769231 L84,69 L77.5769231,69 L77,69 L77,70 L77.5769231,70 L84,70 L84,76.4230769 L84,77 L85,77 L85,76.4230769 L85,70 L91.4230769,70 L92,70 L92,69 L91.4230769,69 L85,69 Z" id="Combined-Shape" stroke="#FFFFFF" stroke-linecap="square"></path>
                <path d="M41.1379162,34.8578947 C43.0094522,36.2473684 45.2212675,37 47.4897959,37 C49.7583244,37 51.9701396,36.2473684 53.8416756,34.8578947 C56.620623,32.8315789 58.2653061,29.4736842 58.2653061,26 C58.2653061,19.9210526 53.4446831,15 47.4897959,15 C41.5349087,15 36.7142857,19.9210526 36.7142857,26 C36.7142857,29.4736842 38.3589689,32.8315789 41.1379162,34.8578947 Z" id="Shape" fill="#FFFFFF" fill-rule="nonzero"></path>
                <path d="M70.7136558,53.6146341 C70.5418492,52.6780488 70.3700427,51.7414634 70.0836985,50.8634146 C68.0792889,43.897561 63.1541683,38.2780488 56.6827889,35.3512195 C56.281907,35.7609756 55.8237563,36.1707317 55.3083367,36.5219512 C53.0175829,38.2195122 50.383216,39.097561 47.5770427,39.097561 C44.7708693,39.097561 42.0792336,38.2195122 39.8457487,36.5219512 C39.2157914,36.0536585 38.6431029,35.5268293 38.1276833,35 C29.4800879,38.5121951 23.4668592,47 23.0087084,56.6585366 C22.9514396,57.2439024 23.180515,57.8292683 23.5813969,58.297561 C23.9822788,58.7658537 24.6122361,59 25.1849245,59 L68.7665151,59 C69.3964724,59 69.9691608,58.7658537 70.3700427,58.297561 C70.7709246,57.8292683 71,57.2439024 71,56.6 C71,56.3073171 71,56.0146341 70.9427312,55.7804878 C70.9427312,55.0780488 70.8281935,54.3170732 70.7136558,53.6146341 Z" id="Shape" fill="#FFFFFF" fill-rule="nonzero"></path>
            </g>
        </g>
    </g>
</svg>