<?xml version="1.0" encoding="UTF-8"?>
<svg width="14px" height="14px" viewBox="0 0 14 14" version="1.1" xmlns="http://www.w3.org/2000/svg" xmlns:xlink="http://www.w3.org/1999/xlink">
    <defs>
        <rect id="path-1" x="0" y="0" width="16" height="16"></rect>
        <linearGradient x1="50%" y1="0%" x2="50%" y2="100%" id="linearGradient-3">
            <stop stop-color="#626262" stop-opacity="0.67224298" offset="0%"></stop>
            <stop stop-color="#333333" stop-opacity="0.67224298" offset="100%"></stop>
        </linearGradient>
        <linearGradient x1="50%" y1="0%" x2="50%" y2="97.5566008%" id="linearGradient-4">
            <stop stop-color="#656565" offset="0%"></stop>
            <stop stop-color="#150500" offset="100%"></stop>
        </linearGradient>
    </defs>
    <g id="Utility" stroke="none" stroke-width="1" fill="none" fill-rule="evenodd">
        <g id="02-Recents" transform="translate(-1106.000000, -332.000000)">
            <g id="Group-2" transform="translate(790.000000, 321.000000)">
                <g id="Group">
                    <g id="Title-Bar/Settings" transform="translate(315.000000, 10.000000)">
                        <mask id="mask-2" fill="white">
                            <use xlink:href="#path-1"></use>
                        </mask>
                        <g id="Mask"></g>
                        <g id="Group-2" stroke-width="1" fill-rule="evenodd" mask="url(#mask-2)">
                            <g transform="translate(1.333333, 1.333333)">
                                <path d="M11.4261537,7.33333333 C11.4261537,7.13333333 11.4928203,6.93333333 11.4928203,6.66666667 C11.4928203,6.4 11.4928203,6.2 11.4261537,6 L12.8261537,4.86666667 C12.959487,4.73333333 12.959487,4.6 12.8928203,4.46666667 L11.559487,2.13333333 C11.4928203,2.06666667 11.359487,2 11.159487,2.06666667 L9.49282032,2.73333333 C9.15948699,2.46666667 8.75948699,2.26666667 8.35948699,2.06666667 L8.09282032,0.333333333 C8.15948699,0.133333333 7.95948699,0 7.82615366,0 L5.15948699,0 C5.02615366,0 4.82615366,0.133333333 4.82615366,0.266666667 L4.55948699,2.06666667 C4.15948699,2.2 3.82615366,2.46666667 3.42615366,2.73333333 L1.82615366,2.06666667 C1.62615366,2 1.49282032,2.06666667 1.35948699,2.2 L0.0261536564,4.53333333 C-0.0405130103,4.6 0.0261536564,4.8 0.15948699,4.93333333 L1.55948699,6 C1.55948699,6.2 1.49282032,6.4 1.49282032,6.66666667 C1.49282032,6.93333333 1.49282032,7.13333333 1.55948699,7.33333333 L0.15948699,8.46666667 C0.0261536564,8.6 0.0261536564,8.73333333 0.092820323,8.86666667 L1.42615366,11.2 C1.49282032,11.2666667 1.62615366,11.3333333 1.82615366,11.2666667 L3.49282032,10.6 C3.82615366,10.8666667 4.22615366,11.0666667 4.62615366,11.2666667 L4.89282032,13 C4.89282032,13.1333333 5.02615366,13.2666667 5.22615366,13.2666667 L7.89282032,13.2666667 C8.02615366,13.2666667 8.22615366,13.1333333 8.22615366,13 L8.49282032,11.2666667 C8.89282032,11.0666667 9.29282032,10.8666667 9.62615366,10.6 L11.2928203,11.2666667 C11.4261537,11.3333333 11.6261537,11.2666667 11.6928203,11.1333333 L13.0261537,8.8 C13.0928203,8.66666667 13.0928203,8.46666667 12.959487,8.4 L11.4261537,7.33333333 L11.4261537,7.33333333 Z M6.49282032,9 C5.22615366,9 4.15948699,7.93333333 4.15948699,6.66666667 C4.15948699,5.4 5.22615366,4.33333333 6.49282032,4.33333333 C7.75948699,4.33333333 8.82615366,5.4 8.82615366,6.66666667 C8.82615366,7.93333333 7.75948699,9 6.49282032,9 L6.49282032,9 Z" id="Shape" fill="url(#linearGradient-3)"></path>
                                <path d="M6.49282032,9 C5.22615366,9 4.15948699,7.93333333 4.15948699,6.66666667 C4.15948699,5.4 5.22615366,4.33333333 6.49282032,4.33333333 C7.75948699,4.33333333 8.82615366,5.4 8.82615366,6.66666667 C8.82615366,7.93333333 7.75948699,9 6.49282032,9 L6.49282032,9 Z" id="Path" fill="url(#linearGradient-4)" opacity="0.797950634"></path>
                            </g>
                        </g>
                    </g>
                </g>
            </g>
        </g>
    </g>
</svg>