<?xml version="1.0" encoding="UTF-8"?>
<svg width="52px" height="36px" viewBox="0 0 52 36" version="1.1" xmlns="http://www.w3.org/2000/svg" xmlns:xlink="http://www.w3.org/1999/xlink">
    <!-- Generator: Sketch 48.2 (47327) - http://www.bohemiancoding.com/sketch -->
    <title>icon/storage</title>
    <desc>Created with Sketch.</desc>
    <defs></defs>
    <g id="Assets" stroke="none" stroke-width="1" fill="none" fill-rule="evenodd" transform="translate(-424.000000, -471.000000)">
        <g id="icon/storage" transform="translate(425.000000, 463.000000)" stroke="#FFFFFF">
            <g id="Page-1" transform="translate(0.000000, 9.000000)">
                <path d="M49.768913,23.8953619 C49.768913,29.2020603 45.4368478,33.5044095 40.0922826,33.5044095 L9.12652174,33.5044095 C4.2651087,33.5044095 0.325434783,29.5906317 0.325434783,24.7653302 L0.325434783,23.8953619 C0.325434783,19.5752032 3.48195652,15.9873937 7.62978261,15.2814889 C7.98032609,15.2215841 8.25858696,14.9636159 8.34445652,14.6203778 C9.30206522,10.7810762 12.795,7.93533016 16.956413,7.93533016 L17.0113043,7.93533016 C17.3243478,7.93694921 17.6167391,7.7793619 17.7759783,7.51167937 C20.333587,3.20933016 25.0482609,0.323647619 30.4417391,0.323647619 C38.5591304,0.323647619 45.1390217,6.85812381 45.1390217,14.9182825 C45.1390217,15.1595206 45.1341304,15.3991397 45.1216304,15.6376794 C45.1053261,15.9609492 45.2694565,16.2631714 45.5477174,16.4320921 C48.0792391,17.9658698 49.768913,20.7355206 49.768913,23.8953619 Z" id="Stroke-1" stroke-width="1.06633333"></path>
                <path d="M8.44173913,18.5799206 C8.26456522,17.901 8.17,17.1891587 8.17,16.4551905 C8.17,11.7917937 11.9770652,8.01131746 16.6732609,8.01131746 C16.9401087,8.01131746 17.2031522,8.02319048 17.4634783,8.04693651" id="Stroke-3" stroke-width="1.00633333" stroke-linecap="round"></path>
                <path d="M44.9678261,13.1731111 C45.0134783,13.576254 45.0390217,13.9853333 45.043913,14.3992698 C45.07,16.8677778 44.345,19.1706032 43.0781522,21.091873" id="Stroke-5" stroke-width="0.865333333" stroke-linecap="round"></path>
                <path d="M22.7213587,14.8082413 C21.600163,14.0650984 19.9267935,13.5135429 17.6229891,14.1158286 C17.6229891,14.1158286 12.8816848,15.5637968 13.7208152,20.7970984 L13.8104891,21.2131937 C13.8104891,21.2131937 14.4121196,24.2186857 17.6409239,25.1976698 C19.6724457,25.8134476 21.9104891,25.3849397 23.4561413,23.9380508 C23.8947283,23.5278921 24.3094022,23.0141143 24.6349457,22.3740508 C25.9392935,19.8132571 25.1566848,18.1154159 24.8963587,17.0797651 C24.6349457,16.0441143 23.9691848,12.734781 27.0115761,9.94408254 C30.0534239,7.15284444 35.8778804,7.72868571 37.9930978,12.1017333 C40.1077717,16.4753206 37.5295109,21.280654 33.2121196,22.1727492 C33.2121196,22.1727492 31.2246196,22.6606222 28.9816848,21.7987492 C28.4295109,21.5861143 27.9409239,21.3157333 27.5094022,21.0097333" id="Stroke-7" stroke-width="0.959666667"></path>
            </g>
        </g>
    </g>
</svg>