<?xml version="1.0" encoding="UTF-8"?>
<svg width="43px" height="36px" viewBox="0 0 43 36" version="1.1" xmlns="http://www.w3.org/2000/svg" xmlns:xlink="http://www.w3.org/1999/xlink">
    <!-- Generator: Sketch 47.1 (45422) - http://www.bohemiancoding.com/sketch -->
    <title>Icon/Take_pic_vector</title>
    <desc>Created with Sketch.</desc>
    <defs></defs>
    <g id="Mobile_App" stroke="none" stroke-width="1" fill="none" fill-rule="evenodd">
        <g id="Assets" transform="translate(-25.000000, -505.000000)" stroke-width="2" stroke="#F15A22" fill-rule="nonzero">
            <g id="Icon/Take_pic" transform="translate(22.000000, 499.000000)">
                <g id="Shape">
                    <path d="M38.4772727,12.6666667 L34.75,12.6666667 C33.2087727,12.6666667 31.9545455,11.3954444 31.9545455,9.83333333 L31.9545455,7.94444444 C31.9545455,7.425 31.5352273,7 31.0227273,7 L17.9772727,7 C17.4629091,7 17.0454545,7.425 17.0454545,7.94444444 L17.0454545,9.83333333 C17.0454545,11.3954444 15.7912273,12.6666667 14.25,12.6666667 L10.5227273,12.6666667 C6.92590909,12.6666667 4,15.6322222 4,19.2777778 L4,34.3888889 C4,38.0344444 6.92590909,41 10.5227273,41 L38.4772727,41 C42.0740909,41 45,38.0344444 45,34.3888889 L45,19.2777778 C45,15.6322222 42.0740909,12.6666667 38.4772727,12.6666667 Z M24.5,36.2857143 C18.847125,36.2857143 14.25,31.6885893 14.25,26.0357143 C14.25,20.3828393 18.847125,15.7857143 24.5,15.7857143 C30.152875,15.7857143 34.75,20.3828393 34.75,26.0357143 C34.75,31.6885893 30.152875,36.2857143 24.5,36.2857143 Z"></path>
                </g>
            </g>
        </g>
    </g>
</svg>