<?xml version="1.0" encoding="UTF-8"?>
<svg width="76px" height="24px" viewBox="0 0 76 24" version="1.1" xmlns="http://www.w3.org/2000/svg" xmlns:xlink="http://www.w3.org/1999/xlink">
    <!-- Generator: Sketch 47.1 (45422) - http://www.bohemiancoding.com/sketch -->
    <title>Logo/tronX_vector</title>
    <desc>Created with Sketch.</desc>
    <defs></defs>
    <g id="Mobile_App" stroke="none" stroke-width="1" fill="none" fill-rule="evenodd">
        <g id="Assets" transform="translate(-70.000000, -136.000000)">
            <g id="Logo/tronX" transform="translate(18.000000, 105.000000)">
                <g id="Logo/tronX_logo">
                    <g id="tronX-Logo_Colour">
                        <rect id="Rectangle-path" x="0.1" y="0.9" width="180.1" height="84.4"></rect>
                        <g id="Group" transform="translate(52.000000, 31.000000)" fill-rule="nonzero">
                            <path d="M10.2,21.6 L10.1333333,23.2 C9.6,23.3333333 9.13333333,23.3333333 8.6,23.3333333 C6.86666667,23.3333333 5.53333333,22.8666667 4.6,21.9333333 C3.73333333,21 3.26666667,19.6666667 3.26666667,18.0666667 L3.26666667,9.2 L0.2,9.2 L0.2,7.6 L3.26666667,7.6 L3.26666667,2.8 L5.2,2.8 L5.2,7.6 L9.73333333,7.6 L9.73333333,9.2 L5.2,9.2 L5.2,17.8 C5.2,19.1333333 5.53333333,20.0666667 6.13333333,20.7333333 C6.73333333,21.4 7.6,21.7333333 8.8,21.7333333 C9.26666667,21.7333333 9.73333333,21.6666667 10.2,21.6 Z" id="Shape" fill="#666666"></path>
                            <path d="M21.4,8.93333333 L20,9.06666667 C18.3333333,9.26666667 17.0666667,9.8 16.3333333,10.6666667 C15.6,11.6 15.2,12.7333333 15.2,14 L15.2,23.0666667 L13.2666667,23.0666667 L13.2666667,7.66666667 L15.2,7.66666667 L15.2,10.4 C15.6666667,9.46666667 16.3333333,8.73333333 17.2,8.26666667 C18.0666667,7.8 19.1333333,7.46666667 20.4,7.4 L21.2,7.33333333 L21.4,8.93333333 Z" id="Shape" fill="#666666"></path>
                            <path d="M26.1333333,22.4 C25.0666667,21.7333333 24.2,20.8 23.6,19.6 C23,18.4 22.7333333,16.9333333 22.7333333,15.3333333 C22.7333333,13.7333333 23,12.2666667 23.6,11.0666667 C24.2,9.86666667 25.0666667,8.93333333 26.1333333,8.26666667 C27.2,7.6 28.4666667,7.26666667 29.8666667,7.26666667 C31.2666667,7.26666667 32.5333333,7.6 33.6,8.26666667 C34.6666667,8.93333333 35.5333333,9.86666667 36.1333333,11.0666667 C36.7333333,12.2666667 37,13.7333333 37,15.3333333 C37,16.9333333 36.7333333,18.4 36.1333333,19.6 C35.5333333,20.8 34.7333333,21.7333333 33.6,22.4 C32.5333333,23.0666667 31.2666667,23.4 29.8666667,23.4 C28.4666667,23.4 27.2,23.0666667 26.1333333,22.4 Z M33.6666667,20 C34.5333333,18.9333333 35,17.3333333 35,15.2666667 C35,13.2666667 34.5333333,11.6666667 33.6666667,10.6 C32.7333333,9.46666667 31.5333333,8.93333333 29.9333333,8.93333333 C28.3333333,8.93333333 27.0666667,9.46666667 26.1333333,10.6 C25.2666667,11.7333333 24.8,13.2666667 24.8,15.2666667 C24.8,17.3333333 25.2666667,18.8666667 26.1333333,20 C27,21.1333333 28.2666667,21.6 29.9333333,21.6 C31.6,21.6 32.8,21.1333333 33.6666667,20 Z" id="Shape" fill="#666666"></path>
                            <path d="M53.8,13.2666667 L53.8,23.1333333 L51.8666667,23.1333333 L51.8666667,13.4 C51.8666667,11.8666667 51.5333333,10.7333333 50.9333333,10.0666667 C50.3333333,9.33333333 49.3333333,9 48,9 C46.4666667,9 45.2,9.46666667 44.3333333,10.4 C43.4,11.3333333 42.9333333,12.6 42.9333333,14.2 L42.9333333,23.2 L41,23.2 L41,7.66666667 L42.9333333,7.66666667 L42.9333333,10.3333333 C43.4,9.33333333 44.1333333,8.6 45.0666667,8.06666667 C46,7.53333333 47.0666667,7.26666667 48.2666667,7.26666667 C51.9333333,7.26666667 53.8,9.26666667 53.8,13.2666667 Z" id="Shape" fill="#666666"></path>
                            <polygon id="Shape" fill="#F15A22" points="67.2 11.6 75.8 23.1333333 73.4666667 23.1333333 66.1333333 13.0666667 58.8 23.1333333 56.4 23.1333333 65 11.5333333 56.9333333 0.533333333 59.2666667 0.533333333 66.2 10.0666667 73.1333333 0.533333333 75.4 0.533333333"></polygon>
                        </g>
                    </g>
                </g>
            </g>
        </g>
    </g>
</svg>