<?xml version="1.0" encoding="UTF-8"?>
<svg width="130px" height="20px" viewBox="0 0 130 20" version="1.1" xmlns="http://www.w3.org/2000/svg" xmlns:xlink="http://www.w3.org/1999/xlink">
    <!-- Generator: Sketch 47.1 (45422) - http://www.bohemiancoding.com/sketch -->
    <title>Logo/Type_face_vector</title>
    <desc>Created with Sketch.</desc>
    <defs></defs>
    <g id="Mobile_App" stroke="none" stroke-width="1" fill="none" fill-rule="evenodd">
        <g id="Assets" transform="translate(-26.000000, -71.000000)" fill="#F15A22">
            <g id="Logo/Type_face" transform="translate(26.000000, 71.000000)">
                <g id="color-logo-01">
                    <path d="M112.188976,7.28205128 C111.472441,4.76923077 109.169291,3.48717949 105.279528,3.48717949 C102.362205,3.48717949 100.775591,4.15384615 99.6496063,5.28205128 C98.2677165,6.76923077 97.8582677,8.35897436 97.8582677,11.5384615 C97.8582677,13.4358974 98.0629921,14.8205128 98.3700787,15.7948718 C99.0866142,18.3589744 101.338583,19.6410256 105.279528,19.6410256 C108.043307,19.6410256 109.783465,19.025641 110.96063,17.8461538 C112.188976,16.6666667 112.700787,14.6666667 112.700787,11.4871795 C112.649606,9.48717949 112.496063,8.35897436 112.188976,7.28205128 Z M105.228346,17.2820513 C103.232283,17.2820513 102.106299,16.8205128 101.389764,15.7948718 C100.826772,14.974359 100.724409,13.6410256 100.724409,11.4871795 C100.724409,9.33333333 100.929134,8.05128205 101.492126,7.33333333 C102.259843,6.30769231 103.232283,5.84615385 105.228346,5.84615385 C107.173228,5.84615385 108.350394,6.25641026 108.964567,7.17948718 C109.57874,8.1025641 109.732283,9.33333333 109.732283,11.4871795 C109.732283,13.8974359 109.476378,15.0769231 108.964567,15.7948718 C108.401575,16.7179487 107.275591,17.2820513 105.228346,17.2820513 Z" id="Shape"></path>
                    <path d="M124.267717,3.33333333 C122.11811,3.33333333 120.633858,4.1025641 119.610236,5.02564103 C119.405512,5.23076923 119.149606,5.12820513 119.149606,4.92307692 C119.149606,4.76923077 119.149606,4.05128205 119.149606,4.05128205 C119.149606,3.74358974 118.893701,3.48717949 118.586614,3.48717949 L117.051181,3.48717949 C116.744094,3.48717949 116.488189,3.74358974 116.488189,4.05128205 L116.488189,19.0769231 C116.488189,19.3846154 116.744094,19.6410256 117.051181,19.6410256 L118.586614,19.6410256 C118.893701,19.6410256 119.149606,19.3846154 119.149606,19.0769231 C119.149606,19.0769231 119.149606,11.8974359 119.149606,9.74358974 C119.149606,7.02564103 120.940945,5.8974359 123.653543,5.8974359 C126.007874,5.8974359 127.287402,6.82051282 127.287402,9.58974359 L127.287402,19.025641 C127.287402,19.3333333 127.543307,19.5897436 127.850394,19.5897436 L129.385827,19.5897436 C129.692913,19.5897436 129.948819,19.3333333 129.948819,19.025641 C129.948819,19.025641 129.948819,10.7179487 129.948819,8.71794872 C130,5.17948718 128.15748,3.33333333 124.267717,3.33333333 Z" id="Shape"></path>
                    <path d="M38.488189,5.8974359 C37.7716535,4.35897436 36.3897638,3.28205128 33.7283465,3.28205128 C31.5275591,3.28205128 30.0433071,4.1025641 28.9685039,5.12820513 C28.7125984,5.38461538 28.507874,5.33333333 28.3031496,5.07692308 C27.1771654,3.58974359 25.8464567,3.28205128 24.2598425,3.28205128 C22.6732283,3.28205128 21.2913386,3.8974359 20.2677165,4.82051282 C20.0629921,5.02564103 19.8582677,4.97435897 19.8582677,4.71794872 C19.8582677,4.56410256 19.8582677,4 19.8582677,4 C19.8582677,3.69230769 19.6023622,3.43589744 19.2952756,3.43589744 L17.7598425,3.43589744 C17.4527559,3.43589744 17.1968504,3.64102564 17.1968504,4 L17.1968504,18.6153846 C17.1968504,19.3846154 17.4527559,19.6410256 17.7598425,19.6410256 L19.2952756,19.6410256 C19.6023622,19.6410256 19.8582677,19.3846154 19.8582677,19.0769231 C19.8582677,19.0769231 19.8582677,11.8974359 19.8582677,9.74358974 C19.8582677,7.02564103 21.1889764,5.8974359 23.6456693,5.8974359 C25.0275591,5.8974359 26.7677165,6.41025641 26.7677165,9.17948718 L26.7677165,19.0769231 C26.7677165,19.3846154 27.023622,19.6410256 27.3307087,19.6410256 L28.8661417,19.6410256 C29.1732283,19.6410256 29.4291339,19.3846154 29.4291339,19.0769231 C29.4291339,19.0769231 29.4291339,11.4358974 29.4291339,9.38461538 C29.4291339,6.97435897 30.5551181,5.8974359 33.0629921,5.8974359 C34.9055118,5.8974359 36.2874016,6.51282051 36.2874016,9.43589744 L36.2874016,19.0769231 C36.2874016,19.3846154 36.5433071,19.6410256 36.8503937,19.6410256 L38.3858268,19.6410256 C38.6929134,19.6410256 38.9488189,19.3846154 38.9488189,19.0769231 L38.9488189,9.38461538 C39,7.64102564 38.8464567,6.66666667 38.488189,5.8974359 Z" id="Shape"></path>
                    <path d="M45.8070866,3.74358974 C44.9370079,3.8974359 44.3228346,4.35897436 44.3740157,4.97435897 L44.476378,5.8974359 C44.5275591,6.20512821 44.7322835,6.46153846 45.2440945,6.35897436 C46.2677165,6.15384615 47.8543307,5.84615385 49.5944882,5.84615385 C51.6929134,5.84615385 52.7677165,6.1025641 53.5354331,6.92307692 C53.9448819,7.38461538 54.0984252,8 54.0984252,9.28205128 C54.0984252,9.74358974 53.9448819,9.84615385 53.5866142,9.84615385 L47.4448819,9.84615385 C44.7834646,9.84615385 42.8897638,11.3333333 42.8897638,13.6410256 L42.8897638,14.7692308 C42.8897638,18 44.7322835,19.7435897 48.7244094,19.7435897 C51.2834646,19.7435897 52.8188976,18.7692308 53.8425197,17.7435897 C53.9448819,17.6410256 54.1496063,17.6923077 54.1496063,17.8461538 L54.1496063,18.7179487 C54.1496063,19.2820513 54.5590551,19.6923077 55.0708661,19.6923077 L55.8897638,19.6923077 C56.4527559,19.6923077 56.8622047,19.2307692 56.8622047,18.7179487 L56.8622047,9.23076923 C56.8622047,7.23076923 56.6062992,6.41025641 56.0944882,5.64102564 C55.019685,4 53.2795276,3.33333333 49.9015748,3.33333333 C47.9566929,3.33333333 46.8818898,3.48717949 45.8070866,3.74358974 Z M54.1496063,14.1025641 C54.1496063,15.7948718 52.1023622,17.3333333 49.2874016,17.3333333 C46.3188976,17.3333333 45.8070866,16.1538462 45.8070866,14.7179487 L45.8070866,13.8461538 C45.8070866,12.6153846 46.8818898,12 48.1614173,12 L53.5354331,12 C53.9448819,12 54.1496063,12.1025641 54.1496063,12.6153846 C54.1496063,12.7692308 54.1496063,13.9487179 54.1496063,14.1025641 Z" id="Shape"></path>
                    <path d="M6.5,19.7435897 C8.80314961,19.7435897 10.6456693,19.2820513 11.7204724,18.6153846 C13,17.7948718 13.7165354,16.6666667 13.7165354,14.8205128 C13.7165354,13.0769231 13.3070866,12.1538462 12.5905512,11.4358974 C11.8740157,10.7692308 11.003937,10.4102564 9.82677165,10.3076923 C9.11023622,10.2564103 8.7519685,10.2051282 6.5,10.0512821 C5.11811024,9.94871795 4.75984252,9.94871795 4.2992126,9.74358974 C3.63385827,9.48717949 3.17322835,9.07692308 3.17322835,8 C3.17322835,7.23076923 3.48031496,6.71794872 4.09448819,6.30769231 C4.75984252,5.84615385 5.88582677,5.74358974 7.62598425,5.74358974 C9.16141732,5.74358974 10.6968504,5.94871795 11.5669291,6.05128205 C11.9251969,6.1025641 12.2322835,6 12.2834646,5.58974359 L12.3858268,4.56410256 C12.4370079,4.05128205 12.0275591,3.74358974 11.515748,3.64102564 C10.5944882,3.48717949 8.85433071,3.28205128 7.72834646,3.28205128 C4.75984252,3.28205128 3.27559055,3.64102564 2.0984252,4.41025641 C0.87007874,5.17948718 0.255905512,6.30769231 0.204724409,8.1025641 C0.204724409,10.1538462 0.972440945,11.3333333 2.35433071,12 C3.07086614,12.3589744 3.83858268,12.5128205 5.32283465,12.6153846 C5.98818898,12.6666667 6.96062992,12.7179487 7.57480315,12.7692308 C9.26377953,12.8717949 9.31496063,12.974359 9.72440945,13.1282051 C10.2874016,13.3846154 10.7480315,13.8974359 10.7480315,14.7692308 C10.7480315,16.1538462 9.92913386,16.8205128 9.00787402,17.0769231 C8.18897638,17.3333333 7.31889764,17.4358974 6.03937008,17.4358974 C4.50393701,17.4358974 2.50787402,16.974359 1.38188976,16.7179487 C1.02362205,16.6153846 0.716535433,16.7692308 0.716535433,17.2307692 L0.614173228,18.2564103 C0.562992126,18.7179487 0.87007874,18.974359 1.43307087,19.1282051 C2.55905512,19.4358974 4.65748031,19.7435897 6.5,19.7435897 Z" id="Shape"></path>
                    <path d="M68.4291339,3.33333333 C66.5354331,3.33333333 65.2559055,4.20512821 64.2834646,5.64102564 C64.1811024,5.79487179 63.976378,5.79487179 63.976378,5.58974359 C63.976378,5.58974359 63.976378,5.58974359 63.976378,5.58974359 L63.976378,4 C63.976378,3.69230769 63.7204724,3.43589744 63.4133858,3.43589744 L61.8779528,3.43589744 C61.5708661,3.43589744 61.3149606,3.69230769 61.3149606,4 L61.3149606,19.025641 C61.3149606,19.3333333 61.5708661,19.5897436 61.8779528,19.5897436 L63.4133858,19.5897436 C63.7204724,19.5897436 63.976378,19.3333333 63.976378,19.025641 L63.976378,12.3076923 C63.976378,10.6666667 63.976378,9.84615385 64.3346457,8.82051282 C64.7952756,7.28205128 66.1771654,5.8974359 68.1732283,5.8974359 C69.6062992,5.8974359 70.015748,6 70.476378,6 C70.8346457,6 70.9370079,5.84615385 70.988189,5.48717949 L71.0905512,4.41025641 C71.0905512,3.69230769 70.0669291,3.33333333 68.4291339,3.33333333 Z" id="Shape"></path>
                    <path d="M81.4291339,3.43589744 C81.4291339,3.43589744 78.6653543,3.43589744 77.3858268,3.43589744 C77.0787402,3.43589744 76.8740157,3.28205128 76.8740157,2.92307692 C76.8740157,2.41025641 76.8740157,0.974358974 76.8740157,0.974358974 C76.8740157,0.666666667 76.6181102,0.41025641 76.3110236,0.41025641 L74.7755906,0.41025641 C74.4685039,0.41025641 74.2125984,0.666666667 74.2125984,0.974358974 C74.2125984,0.974358974 74.2125984,11.8974359 74.2125984,15.6410256 C74.2125984,17.9487179 75.7480315,19.6410256 79.2283465,19.6410256 C81.8897638,19.6410256 82.6062992,19.0769231 82.5551181,18.4615385 C82.503937,18 82.503937,17.8461538 82.4527559,17.4358974 C82.4015748,17.025641 82.1456693,16.9230769 81.8897638,16.974359 C81.2755906,17.0769231 80.6614173,17.2307692 79.6889764,17.2307692 C78.0511811,17.2307692 76.9251969,16.4102564 76.9251969,14.974359 C76.9251969,14.4102564 76.9251969,6.30769231 76.9251969,6.30769231 C76.9251969,6 77.1299213,5.84615385 77.4370079,5.84615385 C78.6653543,5.84615385 81.480315,5.84615385 81.480315,5.84615385 C81.7874016,5.84615385 82.0433071,5.58974359 82.0433071,5.28205128 L82.0433071,3.94871795 C81.992126,3.69230769 81.7362205,3.43589744 81.4291339,3.43589744 Z" id="Shape"></path>
                    <path d="M93.5590551,3.33333333 C91.6653543,3.33333333 90.3858268,4.20512821 89.4133858,5.64102564 C89.3110236,5.79487179 89.1062992,5.79487179 89.1062992,5.58974359 C89.1062992,5.58974359 89.1062992,5.58974359 89.1062992,5.58974359 L89.1062992,4 C89.1062992,3.69230769 88.8503937,3.43589744 88.5433071,3.43589744 L87.007874,3.43589744 C86.7007874,3.43589744 86.4448819,3.69230769 86.4448819,4 L86.4448819,19.025641 C86.4448819,19.3333333 86.7007874,19.5897436 87.007874,19.5897436 L88.5433071,19.5897436 C88.8503937,19.5897436 89.1062992,19.3333333 89.1062992,19.025641 L89.1062992,12.3076923 C89.1062992,10.6666667 89.1062992,9.84615385 89.4645669,8.82051282 C89.9251969,7.28205128 91.3070866,5.8974359 93.3031496,5.8974359 C94.7362205,5.8974359 95.1456693,6 95.6062992,6 C95.9645669,6 96.0669291,5.84615385 96.1181102,5.48717949 L96.2204724,4.41025641 C96.2204724,3.69230769 95.1968504,3.33333333 93.5590551,3.33333333 Z" id="Shape"></path>
                </g>
            </g>
        </g>
    </g>
</svg>