<?xml version="1.0" encoding="UTF-8"?>
<svg width="30px" height="39px" viewBox="0 0 30 39" version="1.1" xmlns="http://www.w3.org/2000/svg" xmlns:xlink="http://www.w3.org/1999/xlink">
    <!-- Generator: Sketch 47.1 (45422) - http://www.bohemiancoding.com/sketch -->
    <title>Icon/Upload_vector</title>
    <desc>Created with Sketch.</desc>
    <defs></defs>
    <g id="Mobile_App" stroke="none" stroke-width="1" fill="none" fill-rule="evenodd" stroke-linecap="round">
        <g id="Assets" transform="translate(-105.000000, -502.000000)" stroke="#F15A22">
            <g id="Icon/Upload" transform="translate(96.000000, 499.000000)">
                <g id="Group">
                    <g transform="translate(10.000000, 3.000000)">
                        <path d="M18.9677419,15.0232558 L22.5806452,15.0232558 L22.5806452,15.0232558 C25.5736722,15.0232558 28,17.3971878 28,20.3255814 L28,32.255814 L28,32.255814 C28,35.1842075 25.5736722,37.5581395 22.5806452,37.5581395 L5.41935484,37.5581395 L5.41935484,37.5581395 C2.42632781,37.5581395 0,35.1842075 0,32.255814 L0,20.3255814 L0,20.3255814 C0,17.3971878 2.42632781,15.0232558 5.41935484,15.0232558 L5.41935484,15.0232558 L9.03225806,15.0232558" id="Rectangle-2" stroke-width="2"></path>
                        <path d="M14,22.9767442 L14,1.76744186" id="Line-3" stroke-width="2" stroke-linejoin="round"></path>
                        <path d="M7.44327116,2.74536896 L17.539425,2.74536896 L17.539425,2.74536896 C19.2122105,2.74536896 20.5682712,4.11494513 20.5682712,5.80440295 L20.5682712,16.0011829" id="Rectangle-3" stroke-width="2" stroke-linejoin="round" transform="translate(14.005771, 9.373276) rotate(-45.000000) translate(-14.005771, -9.373276) "></path>
                    </g>
                </g>
            </g>
        </g>
    </g>
</svg>