<?xml version="1.0" encoding="UTF-8"?>
<svg width="14px" height="14px" viewBox="0 0 14 14" version="1.1" xmlns="http://www.w3.org/2000/svg" xmlns:xlink="http://www.w3.org/1999/xlink">
    <defs>
        <linearGradient x1="50%" y1="0%" x2="50%" y2="100%" id="linearGradient-1">
            <stop stop-color="#626262" stop-opacity="0.67224298" offset="0%"></stop>
            <stop stop-color="#333333" stop-opacity="0.67224298" offset="100%"></stop>
        </linearGradient>
        <linearGradient x1="50%" y1="0%" x2="50%" y2="97.5566008%" id="linearGradient-2">
            <stop stop-color="#2E2E2E" offset="0%"></stop>
            <stop stop-color="#150500" offset="100%"></stop>
        </linearGradient>
    </defs>
    <g id="Utility" stroke="none" stroke-width="1" fill="none" fill-rule="evenodd">
        <g id="02-Recents" transform="translate(-1082.000000, -332.000000)">
            <g id="Group-2" transform="translate(790.000000, 321.000000)">
                <g id="Group">
                    <g id="Title-Bar/web" transform="translate(291.000000, 10.000000)">
                        <g id="Group-2" transform="translate(1.000000, 1.000000)">
                            <path d="M7,0 C8.26997163,0 9.44118387,0.312930898 10.5136719,0.938802083 C11.5861599,1.56467327 12.4353267,2.41384012 13.0611979,3.48632812 C13.6870691,4.55881613 14,5.73002837 14,7 C14,8.26997163 13.6870691,9.44118387 13.0611979,10.5136719 C12.4353267,11.5861599 11.5861599,12.4353267 10.5136719,13.0611979 C9.44118387,13.6870691 8.26997163,14 7,14 C5.73002837,14 4.55881613,13.6870691 3.48632813,13.0611979 C2.41384012,12.4353267 1.56467327,11.5861599 0.938802083,10.5136719 C0.312930898,9.44118387 0,8.26997163 0,7 C0,5.73002837 0.312930898,4.55881613 0.938802083,3.48632812 C1.56467327,2.41384012 2.41384012,1.56467327 3.48632813,0.938802083 C4.55881613,0.312930898 5.73002837,0 7,0 Z" id="Path" fill="url(#linearGradient-1)"></path>
                            <path d="M9.30357143,4.08035714 C9.29166661,4.08630955 9.26339308,4.11458308 9.21875,4.16517857 C9.17410692,4.21577406 9.13392875,4.24404759 9.09821429,4.25 C9.11011911,4.25 9.12351183,4.2351192 9.13839286,4.20535714 C9.15327388,4.17559509 9.16815469,4.14285732 9.18303571,4.10714286 C9.19791674,4.07142839 9.2083333,4.05059527 9.21428571,4.04464286 C9.25000018,4.00297598 9.31547571,3.95833357 9.41071429,3.91071429 C9.49404804,3.87499982 9.64880839,3.83928589 9.875,3.80357143 C10.077382,3.75595214 10.2291662,3.78868991 10.3303571,3.90178571 C10.3184523,3.88988089 10.3467258,3.8511908 10.4151786,3.78571429 C10.4836313,3.72023777 10.5267856,3.68452384 10.5446429,3.67857143 C10.5625001,3.66666661 10.6071425,3.65327388 10.6785714,3.63839286 C10.7500004,3.62351183 10.7946428,3.60119063 10.8125,3.57142857 L10.8303571,3.375 C10.7589282,3.38095241 10.7068454,3.36011929 10.6741071,3.3125 C10.6413689,3.26488071 10.6220238,3.20238134 10.6160714,3.125 C10.6160714,3.13690482 10.5982145,3.16071411 10.5625,3.19642857 C10.5625,3.1547617 10.5491073,3.13095241 10.5223214,3.125 C10.4955356,3.11904759 10.4613097,3.12202375 10.4196429,3.13392857 C10.377976,3.14583339 10.3511905,3.14880955 10.3392857,3.14285714 C10.2797616,3.12499991 10.2351192,3.10267871 10.2053571,3.07589286 C10.1755951,3.04910701 10.1517858,3.00000036 10.1339286,2.92857143 C10.1160713,2.8571425 10.1041667,2.81250009 10.0982143,2.79464286 C10.0863095,2.7648808 10.0580359,2.73214304 10.0133929,2.69642857 C9.96874978,2.66071411 9.94047625,2.6309525 9.92857143,2.60714286 C9.92261902,2.59523804 9.91517862,2.57886915 9.90625,2.55803571 C9.89732138,2.53720228 9.8883929,2.51785723 9.87946429,2.5 C9.87053567,2.48214277 9.85863103,2.46577388 9.84375,2.45089286 C9.82886897,2.43601183 9.81250009,2.42857143 9.79464286,2.42857143 C9.77678563,2.42857143 9.7559525,2.44345223 9.73214286,2.47321429 C9.70833321,2.50297634 9.68601201,2.53273795 9.66517857,2.5625 C9.64434513,2.59226205 9.63095241,2.60714286 9.625,2.60714286 C9.60714277,2.59523804 9.5892858,2.59077379 9.57142857,2.59375 C9.55357134,2.59672621 9.54017862,2.59970237 9.53125,2.60267857 C9.52232138,2.60565478 9.50892866,2.61458326 9.49107143,2.62946429 C9.4732142,2.64434531 9.45833339,2.65476188 9.44642857,2.66071429 C9.42857134,2.67261911 9.40327397,2.68154759 9.37053571,2.6875 C9.33779746,2.69345241 9.31250009,2.69940473 9.29464286,2.70535714 C9.38392902,2.67559509 9.38095286,2.64285732 9.28571429,2.60714286 C9.22619018,2.58333321 9.17857161,2.57440473 9.14285714,2.58035714 C9.19642884,2.5565475 9.21875004,2.52083357 9.20982143,2.47321429 C9.20089281,2.425595 9.17559545,2.38392875 9.13392857,2.34821429 L9.17857143,2.34821429 C9.17261902,2.32440464 9.14732165,2.29910728 9.10267857,2.27232143 C9.05803549,2.24553558 9.00595268,2.22023821 8.94642857,2.19642857 C8.88690446,2.17261893 8.84821437,2.15476196 8.83035714,2.14285714 C8.78273786,2.11309509 8.68154839,2.08482156 8.52678571,2.05803571 C8.37202304,2.03124987 8.27380973,2.02976179 8.23214286,2.05357143 C8.2023808,2.08928589 8.18898808,2.12053558 8.19196429,2.14732143 C8.19494049,2.17410728 8.20684513,2.21577353 8.22767857,2.27232143 C8.24851201,2.32886933 8.25892857,2.36607134 8.25892857,2.38392857 C8.26488098,2.41964304 8.2485121,2.45833313 8.20982143,2.5 C8.17113076,2.54166688 8.15178571,2.5773808 8.15178571,2.60714286 C8.15178571,2.64880973 8.19345196,2.69494022 8.27678571,2.74553571 C8.36011946,2.79613121 8.38988107,2.86011866 8.36607143,2.9375 C8.3482142,2.98511929 8.30059562,3.03273786 8.22321429,3.08035714 C8.14583295,3.12797643 8.09821437,3.16369036 8.08035714,3.1875 C8.05059509,3.23511929 8.04613085,3.29017826 8.06696429,3.35267857 C8.08779772,3.41517888 8.11904741,3.46428554 8.16071429,3.5 C8.17261911,3.51190482 8.17708335,3.52380946 8.17410714,3.53571429 C8.17113094,3.54761911 8.16071437,3.56101183 8.14285714,3.57589286 C8.12499991,3.59077388 8.10863103,3.60267853 8.09375,3.61160714 C8.07886897,3.62053576 8.05952393,3.63095232 8.03571429,3.64285714 L8.00892857,3.66071429 C7.94345205,3.69047634 7.88244076,3.67261938 7.82589286,3.60714286 C7.76934496,3.54166634 7.72916679,3.46428616 7.70535714,3.375 C7.66369027,3.22618973 7.6160717,3.13690491 7.5625,3.10714286 C7.42559455,3.05952357 7.33928589,3.06249973 7.30357143,3.11607143 C7.27380937,3.03869009 7.15178679,2.96130991 6.9375,2.88392857 C6.78868973,2.83035688 6.61607241,2.81845223 6.41964286,2.84821429 C6.45535732,2.84226188 6.45535732,2.79761946 6.41964286,2.71428571 C6.37797598,2.62499955 6.32142893,2.58928563 6.25,2.60714286 C6.26785723,2.57142839 6.27976188,2.51934558 6.28571429,2.45089286 C6.2916667,2.38244013 6.29464286,2.34226196 6.29464286,2.33035714 C6.31250009,2.2529758 6.34821402,2.18452411 6.40178571,2.125 C6.40773812,2.11904759 6.42857125,2.09375022 6.46428571,2.04910714 C6.50000018,2.00446406 6.52827371,1.96428589 6.54910714,1.92857143 C6.56994058,1.89285696 6.57142866,1.875 6.55357143,1.875 C6.7619058,1.89880964 6.91071384,1.86607188 7,1.77678571 C7.02976205,1.74702366 7.0639879,1.69642893 7.10267857,1.625 C7.14136924,1.55357107 7.17261893,1.50297634 7.19642857,1.47321429 C7.25000027,1.43749982 7.29166652,1.42113094 7.32142857,1.42410714 C7.35119063,1.42708335 7.39434496,1.44345223 7.45089286,1.47321429 C7.50744076,1.50297634 7.55059509,1.51785714 7.58035714,1.51785714 C7.66369089,1.52380955 7.70982138,1.49107179 7.71875,1.41964286 C7.72767862,1.34821393 7.70535741,1.28869071 7.65178571,1.24107143 C7.72321464,1.24702384 7.73214312,1.19642911 7.67857143,1.08928571 C7.65476179,1.04761884 7.6309525,1.02083339 7.60714286,1.00892857 C7.53571393,0.985118929 7.45535759,0.999999732 7.36607143,1.05357143 C7.31845214,1.07738107 7.32440446,1.10119036 7.38392857,1.125 C7.37797616,1.11904759 7.34970263,1.15029728 7.29910714,1.21875 C7.24851165,1.28720272 7.199405,1.33928554 7.15178571,1.375 C7.10416643,1.41071446 7.05654786,1.39583366 7.00892857,1.33035714 C7.00297616,1.32440473 6.98660728,1.28422656 6.95982143,1.20982143 C6.93303558,1.13541629 6.90476205,1.09523813 6.875,1.08928571 C6.82738071,1.08928571 6.77976214,1.13392813 6.73214286,1.22321429 C6.75000009,1.175595 6.71726232,1.13095259 6.63392857,1.08928571 C6.55059482,1.04761884 6.47916696,1.02380955 6.41964286,1.01785714 C6.53273866,0.946428214 6.50892937,0.866071875 6.34821429,0.776785714 C6.30654741,0.752976071 6.24553612,0.738095268 6.16517857,0.732142857 C6.08482103,0.726190446 6.02678589,0.738095089 5.99107143,0.767857143 C5.96130937,0.809524018 5.94494049,0.843749866 5.94196429,0.870535714 C5.93898808,0.897321563 5.95386888,0.921130848 5.98660714,0.941964286 C6.0193454,0.962797723 6.05059509,0.979166607 6.08035714,0.991071429 C6.1101192,1.00297625 6.14434504,1.01488089 6.18303571,1.02678571 C6.22172638,1.03869054 6.24702375,1.04761902 6.25892857,1.05357143 C6.34226232,1.11309554 6.36607161,1.15476179 6.33035714,1.17857143 C6.31845232,1.18452384 6.29315496,1.1949404 6.25446429,1.20982143 C6.21577362,1.22470246 6.18154777,1.23809518 6.15178571,1.25 C6.12202366,1.26190482 6.1041667,1.27380946 6.09821429,1.28571429 C6.08035705,1.30952393 6.08035705,1.35119018 6.09821429,1.41071429 C6.11607152,1.47023839 6.1101192,1.51190464 6.08035714,1.53571429 C6.05059509,1.50595223 6.02380964,1.45386942 6,1.37946429 C5.97619036,1.30505915 5.95535723,1.2559525 5.9375,1.23214286 C5.97916687,1.28571455 5.90476286,1.30357152 5.71428571,1.28571429 L5.625,1.27678571 C5.60119036,1.27678571 5.55357179,1.28273804 5.48214286,1.29464286 C5.41071393,1.30654768 5.34970263,1.30952384 5.29910714,1.30357143 C5.24851165,1.29761902 5.20833348,1.27380973 5.17857143,1.23214286 C5.15476179,1.18452357 5.15476179,1.12500036 5.17857143,1.05357143 C5.18452384,1.02976179 5.19642848,1.02380946 5.21428571,1.03571429 C5.19047607,1.01785705 5.1577383,0.989583527 5.11607143,0.950892857 C5.07440455,0.912202188 5.04464295,0.886904821 5.02678571,0.875 C4.75297482,0.964286161 4.47321571,1.08630875 4.1875,1.24107143 C4.22321446,1.24702384 4.25892839,1.24404768 4.29464286,1.23214286 C4.32440491,1.22023804 4.363095,1.20089299 4.41071429,1.17410714 C4.45833357,1.14732129 4.48809518,1.13095241 4.5,1.125 C4.70238196,1.04166625 4.82738071,1.02083313 4.875,1.0625 L4.91964286,1.01785714 C5.00297661,1.11309571 5.06249982,1.18749973 5.09821429,1.24107143 C5.05654741,1.21726179 4.96726259,1.21428563 4.83035714,1.23214286 C4.71130893,1.26785732 4.64583339,1.30357125 4.63392857,1.33928571 C4.67559545,1.41071464 4.69047625,1.46428554 4.67857143,1.5 C4.65476179,1.48214277 4.62053594,1.45238116 4.57589286,1.41071429 C4.53124978,1.36904741 4.48809545,1.33630964 4.44642857,1.3125 C4.4047617,1.28869036 4.36011929,1.27380955 4.3125,1.26785714 C4.21726143,1.26785714 4.15178589,1.2708333 4.11607143,1.27678571 C3.24701946,1.75297857 2.5476217,2.41368625 2.01785714,3.25892857 C2.05952402,3.30059545 2.09523795,3.32440473 2.125,3.33035714 C2.14880964,3.33630955 2.16369045,3.363095 2.16964286,3.41071429 C2.17559527,3.45833357 2.18303567,3.49107134 2.19196429,3.50892857 C2.2008929,3.5267858 2.23511875,3.51785732 2.29464286,3.48214286 C2.34821455,3.52976214 2.35714304,3.5863092 2.32142857,3.65178571 C2.32738098,3.6458333 2.45833205,3.72618964 2.71428571,3.89285714 C2.82738152,3.99404813 2.88988089,4.0565475 2.90178571,4.08035714 C2.91964295,4.14583366 2.88988134,4.19940455 2.8125,4.24107143 C2.80654759,4.22916661 2.77976214,4.20238116 2.73214286,4.16071429 C2.68452357,4.11904741 2.65773812,4.10714277 2.65178571,4.125 C2.63392848,4.15476205 2.63541656,4.20982103 2.65625,4.29017857 C2.67708344,4.37053612 2.70833313,4.40773813 2.75,4.40178571 C2.70833313,4.40178571 2.6800596,4.44940429 2.66517857,4.54464286 C2.65029754,4.63988143 2.64285714,4.74553513 2.64285714,4.86160714 C2.64285714,4.97767915 2.63988098,5.04761893 2.63392857,5.07142857 L2.65178571,5.08035714 C2.63392848,5.15178607 2.65029737,5.25446362 2.70089286,5.38839286 C2.75148835,5.5223221 2.8154758,5.58035723 2.89285714,5.5625 C2.8154758,5.58035723 2.87499902,5.70833214 3.07142857,5.94642857 C3.10714304,5.99404786 3.13095232,6.0208333 3.14285714,6.02678571 C3.16071437,6.03869054 3.1964283,6.06101174 3.25,6.09375 C3.3035717,6.12648826 3.34821411,6.15624987 3.38392857,6.18303571 C3.41964304,6.20982156 3.44940464,6.24107125 3.47321429,6.27678571 C3.49702393,6.30654777 3.52678554,6.37351138 3.5625,6.47767857 C3.59821446,6.58184576 3.63988071,6.65178554 3.6875,6.6875 C3.67559518,6.72321446 3.70386871,6.78273768 3.77232143,6.86607143 C3.84077415,6.94940518 3.87202384,7.01785688 3.86607143,7.07142857 C3.86011902,7.07142857 3.85267862,7.07440473 3.84375,7.08035714 C3.83482138,7.08630955 3.82738098,7.08928571 3.82142857,7.08928571 C3.8392858,7.13095259 3.88541629,7.17261884 3.95982143,7.21428571 C4.03422656,7.25595259 4.08035705,7.29464268 4.09821429,7.33035714 C4.1041667,7.34821438 4.11011902,7.37797598 4.11607143,7.41964286 C4.12202384,7.46130973 4.13095232,7.4940475 4.14285714,7.51785714 C4.15476196,7.54166679 4.17857125,7.54761911 4.21428571,7.53571429 C4.22619054,7.41666607 4.15476268,7.23214411 4,6.98214286 C3.91071384,6.83333259 3.86011911,6.74702393 3.84821429,6.72321429 C3.83035705,6.69345223 3.81398817,6.64732174 3.79910714,6.58482143 C3.78422612,6.52232112 3.77083339,6.47916679 3.75892857,6.45535714 C3.77083339,6.45535714 3.78869036,6.45982138 3.8125,6.46875 C3.83630964,6.47767862 3.86160701,6.48809518 3.88839286,6.5 C3.91517871,6.51190482 3.93749991,6.52380946 3.95535714,6.53571429 C3.97321437,6.54761911 3.9791667,6.55654759 3.97321429,6.5625 C3.95535705,6.60416688 3.96130937,6.65624969 3.99107143,6.71875 C4.02083348,6.78125031 4.05654741,6.83630929 4.09821429,6.88392857 C4.13988116,6.93154786 4.19047589,6.98809491 4.25,7.05357143 C4.30952411,7.11904795 4.34523804,7.15773804 4.35714286,7.16964286 C4.39285732,7.20535732 4.43452357,7.26339246 4.48214286,7.34375 C4.52976214,7.42410754 4.52976214,7.46428571 4.48214286,7.46428571 C4.53571455,7.46428571 4.59523777,7.4955354 4.66071429,7.55803571 C4.7261908,7.62053603 4.77678554,7.67857116 4.8125,7.73214286 C4.84226205,7.77976214 4.86607134,7.85714232 4.88392857,7.96428571 C4.9017858,8.07142911 4.91666661,8.14285696 4.92857143,8.17857143 C4.94047625,8.2202383 4.96577362,8.26041647 5.00446429,8.29910714 C5.04315496,8.33779781 5.08035696,8.36607134 5.11607143,8.38392857 L5.25892857,8.45535714 C5.31845268,8.4851192 5.35714277,8.50595232 5.375,8.51785714 C5.40476205,8.52976196 5.45982103,8.56101165 5.54017857,8.61160714 C5.62053612,8.66220263 5.68452357,8.69642848 5.73214286,8.71428571 C5.79166696,8.73809536 5.83928554,8.75 5.875,8.75 C5.91071446,8.75 5.95386879,8.7425596 6.00446429,8.72767857 C6.05505978,8.71279754 6.09523795,8.70238098 6.125,8.69642857 C6.21428616,8.68452375 6.30059482,8.72916616 6.38392857,8.83035714 C6.46726232,8.93154813 6.5297617,8.9940475 6.57142857,9.01785714 C6.78571536,9.13095295 6.9494042,9.16369071 7.0625,9.11607143 C7.05059518,9.12202384 7.05208326,9.14434504 7.06696429,9.18303571 C7.08184531,9.22172638 7.1056546,9.26785688 7.13839286,9.32142857 C7.17113112,9.37500027 7.19791656,9.4181546 7.21875,9.45089286 C7.23958344,9.48363112 7.25595232,9.50892848 7.26785714,9.52678571 C7.2976192,9.56250018 7.35119009,9.60714259 7.42857143,9.66071429 C7.50595277,9.71428598 7.55952366,9.75892839 7.58928571,9.79464286 C7.62500018,9.77083321 7.6458333,9.74404777 7.65178571,9.71428571 C7.63392848,9.761905 7.65476161,9.82142821 7.71428571,9.89285714 C7.77380982,9.96428607 7.82738071,9.99404768 7.875,9.98214286 C7.95833375,9.96428563 8,9.86904848 8,9.69642857 C7.81547527,9.78571473 7.66964339,9.73214384 7.5625,9.53571429 C7.5625,9.52976188 7.5550596,9.51339299 7.54017857,9.48660714 C7.52529754,9.45982129 7.5133929,9.43452393 7.50446429,9.41071429 C7.49553567,9.38690464 7.48809527,9.36160728 7.48214286,9.33482143 C7.47619045,9.30803558 7.47619045,9.28571438 7.48214286,9.26785714 C7.48809527,9.24999991 7.50297607,9.24107143 7.52678571,9.24107143 C7.58035741,9.24107143 7.61011902,9.23065487 7.61607143,9.20982143 C7.62202384,9.18898799 7.61607152,9.15178598 7.59821429,9.09821429 C7.58035705,9.04464259 7.56845241,9.0059525 7.5625,8.98214286 C7.55654759,8.93452357 7.52380982,8.87500036 7.46428571,8.80357143 C7.40476161,8.7321425 7.36904768,8.68750009 7.35714286,8.66964286 C7.3273808,8.72321455 7.27976223,8.74702384 7.21428571,8.74107143 C7.1488092,8.73511902 7.10119063,8.70833357 7.07142857,8.66071429 C7.07142857,8.6666667 7.06696433,8.68303558 7.05803571,8.70982143 C7.0491071,8.73660728 7.04464286,8.75595232 7.04464286,8.76785714 C6.96726152,8.76785714 6.92261911,8.76488098 6.91071429,8.75892857 C6.9166667,8.74107134 6.9241071,8.68898853 6.93303571,8.60267857 C6.94196433,8.51636862 6.95238089,8.449405 6.96428571,8.40178571 C6.97023812,8.37797607 6.98660701,8.34226214 7.01339286,8.29464286 C7.04017871,8.24702357 7.06249991,8.20386924 7.08035714,8.16517857 C7.09821437,8.1264879 7.11011902,8.08928589 7.11607143,8.05357143 C7.12202384,8.01785696 7.10863112,7.98958344 7.07589286,7.96875 C7.0431546,7.94791656 6.99107179,7.94047616 6.91964286,7.94642857 C6.80654705,7.95238098 6.72916687,8.0119042 6.6875,8.125 C6.68154759,8.14285723 6.67261911,8.17410692 6.66071429,8.21875 C6.64880946,8.26339308 6.63392866,8.29761893 6.61607143,8.32142857 C6.5982142,8.34523821 6.57142875,8.36607134 6.53571429,8.38392857 C6.49404741,8.4017858 6.42261955,8.40773813 6.32142857,8.40178571 C6.22023759,8.3958333 6.14880973,8.3809525 6.10714286,8.35714286 C6.02976152,8.30952357 5.9627979,8.22321491 5.90625,8.09821429 C5.8497021,7.97321366 5.82142857,7.86309571 5.82142857,7.76785714 C5.82142857,7.70833304 5.82886897,7.62946478 5.84375,7.53125 C5.85863103,7.43303522 5.86755951,7.35863121 5.87053571,7.30803571 C5.87351192,7.25744022 5.85714304,7.18452429 5.82142857,7.08928571 C5.8392858,7.07738089 5.86607125,7.04910737 5.90178571,7.00446429 C5.93750018,6.95982121 5.96726179,6.92857152 5.99107143,6.91071429 C6.00297625,6.90476188 6.01636897,6.90029763 6.03125,6.89732143 C6.04613103,6.89434522 6.05952375,6.89434522 6.07142857,6.89732143 C6.08333339,6.90029763 6.09523804,6.89583339 6.10714286,6.88392857 C6.11904768,6.87202375 6.12797616,6.85416679 6.13392857,6.83035714 C6.12797616,6.82440473 6.11607152,6.81547625 6.09821429,6.80357143 C6.08035705,6.7857142 6.06845241,6.77678571 6.0625,6.77678571 C6.10416687,6.79464295 6.18898746,6.79017871 6.31696429,6.76339286 C6.44494112,6.73660701 6.52678554,6.74107125 6.5625,6.77678571 C6.65178616,6.84226223 6.7172617,6.83630991 6.75892857,6.75892857 C6.75892857,6.75297616 6.75148817,6.72470263 6.73660714,6.67410714 C6.72172612,6.62351165 6.72023804,6.58333348 6.73214286,6.55357143 C6.76190491,6.71428652 6.84821357,6.74107196 6.99107143,6.63392857 C7.00892866,6.6517858 7.05505915,6.66666661 7.12946429,6.67857143 C7.20386942,6.69047625 7.25595223,6.70535705 7.28571429,6.72321429 C7.30357152,6.73511911 7.32440464,6.75148799 7.34821429,6.77232143 C7.37202393,6.79315487 7.38839281,6.80654759 7.39732143,6.8125 C7.40625004,6.81845241 7.42113085,6.81696433 7.44196429,6.80803571 C7.46279772,6.7991071 7.48809509,6.77976205 7.51785714,6.75 C7.57738125,6.83333375 7.61309518,6.90476161 7.625,6.96428571 C7.69047652,7.20238214 7.74702357,7.33333321 7.79464286,7.35714286 C7.83630973,7.37500009 7.8690475,7.38095241 7.89285714,7.375 C7.91666679,7.36904759 7.93005951,7.34077406 7.93303571,7.29017857 C7.93601192,7.23958308 7.93601192,7.19791683 7.93303571,7.16517857 C7.93005951,7.13244031 7.92559527,7.0952383 7.91964286,7.05357143 L7.91071429,6.98214286 L7.91071429,6.82142857 L7.90178571,6.75 C7.81249955,6.73214277 7.75744058,6.69642884 7.73660714,6.64285714 C7.71577371,6.58928545 7.72023795,6.53422647 7.75,6.47767857 C7.77976205,6.42113067 7.82440446,6.3660717 7.88392857,6.3125 C7.88988098,6.30654759 7.91369027,6.29613103 7.95535714,6.28125 C7.99702402,6.26636897 8.04315451,6.24702393 8.09375,6.22321429 C8.14434549,6.19940464 8.1815475,6.17559536 8.20535714,6.15178571 C8.33035777,6.03868991 8.37500018,5.93452429 8.33928571,5.83928571 C8.38095259,5.83928571 8.41369036,5.81250027 8.4375,5.75892857 C8.43154759,5.75892857 8.41666679,5.75000009 8.39285714,5.73214286 C8.3690475,5.71428563 8.34672629,5.69940482 8.32589286,5.6875 C8.30505942,5.67559518 8.2916667,5.66964286 8.28571429,5.66964286 C8.33928598,5.6398808 8.3452383,5.59226223 8.30357143,5.52678571 C8.33333348,5.50892848 8.35565469,5.47619071 8.37053571,5.42857143 C8.38541674,5.38095214 8.40773795,5.35119054 8.4375,5.33928571 C8.4910717,5.41071464 8.55357107,5.41666696 8.625,5.35714286 C8.67261929,5.30952357 8.67559545,5.261905 8.63392857,5.21428571 C8.66369063,5.17261884 8.72470192,5.14136915 8.81696429,5.12053571 C8.90922665,5.09970228 8.96428563,5.07142875 8.98214286,5.03571429 C9.02380973,5.04761911 9.04761902,5.04166679 9.05357143,5.01785714 C9.05952384,4.9940475 9.0625,4.95833357 9.0625,4.91071429 C9.0625,4.863095 9.07142848,4.82738107 9.08928571,4.80357143 C9.11309536,4.77380938 9.15773777,4.74702393 9.22321429,4.72321429 C9.2886908,4.69940464 9.32738089,4.68452384 9.33928571,4.67857143 L9.49107143,4.58035714 C9.50892866,4.5565475 9.50892866,4.54464286 9.49107143,4.54464286 C9.59821482,4.55654768 9.6904758,4.52380991 9.76785714,4.44642857 C9.82738125,4.38095205 9.80952429,4.32142884 9.71428571,4.26785714 C9.73214295,4.23214268 9.72321446,4.20386915 9.6875,4.18303571 C9.65178554,4.16220228 9.60714312,4.14583339 9.55357143,4.13392857 C9.57142866,4.12797616 9.60565451,4.12648808 9.65625,4.12946429 C9.70684549,4.13244049 9.73809518,4.12797625 9.75,4.11607143 C9.83928616,4.05654732 9.81845304,4.00892875 9.6875,3.97321429 C9.58630902,3.94345223 9.45833411,3.97916616 9.30357143,4.08035714 Z" id="Path" fill="url(#linearGradient-2)" opacity="0.5"></path>
                            <path d="M7.84821429,11.9107143 C9.07441089,11.6964275 10.1190433,11.1339331 10.9821429,10.2232143 C10.9642856,10.2053571 10.9270836,10.1919643 10.8705357,10.1830357 C10.8139878,10.1741071 10.7767858,10.1636905 10.7589286,10.1517857 C10.6517852,10.1101188 10.5803573,10.0863096 10.5446429,10.0803571 C10.5505953,10.0386903 10.5431549,10.0000002 10.5223214,9.96428571 C10.501488,9.92857125 10.4776787,9.9017858 10.4508929,9.88392857 C10.424107,9.86607134 10.386905,9.84226205 10.3392857,9.8125 C10.2916664,9.78273795 10.2589287,9.76190482 10.2410714,9.75 C10.2291666,9.73809518 10.2083335,9.72023821 10.1785714,9.69642857 C10.1488094,9.67261893 10.1279763,9.65625004 10.1160714,9.64732143 C10.1041666,9.63839281 10.0818454,9.62500009 10.0491071,9.60714286 C10.0163689,9.58928562 9.99107152,9.5833333 9.97321429,9.58928571 C9.95535705,9.59523812 9.92559545,9.59821429 9.88392857,9.59821429 L9.85714286,9.60714286 C9.83928562,9.61309527 9.82291674,9.62053567 9.80803571,9.62946429 C9.79315469,9.6383929 9.7767858,9.64732138 9.75892857,9.65625 C9.74107134,9.66517862 9.7291667,9.6741071 9.72321429,9.68303571 C9.71726188,9.69196433 9.71726188,9.69940473 9.72321429,9.70535714 C9.59821366,9.60416616 9.49107187,9.53869062 9.40178571,9.50892857 C9.37202366,9.50297616 9.33928589,9.48660728 9.30357143,9.45982143 C9.26785696,9.43303558 9.23660728,9.41220246 9.20982143,9.39732143 C9.18303558,9.3824404 9.15327397,9.37797616 9.12053571,9.38392857 C9.08779746,9.38988098 9.05357161,9.41071411 9.01785714,9.44642857 C8.98809509,9.47619062 8.97023812,9.52083304 8.96428571,9.58035714 C8.9583333,9.63988125 8.95238098,9.67857134 8.94642857,9.69642857 C8.9047617,9.66666652 8.9047617,9.61458371 8.94642857,9.54017857 C8.98809545,9.46577344 8.99404777,9.41071446 8.96428571,9.375 C8.94642848,9.33928554 8.91517879,9.32589281 8.87053571,9.33482143 C8.82589263,9.34375004 8.79017871,9.35714277 8.76339286,9.375 C8.73660701,9.39285723 8.70238116,9.4181546 8.66071429,9.45089286 C8.61904741,9.48363112 8.59226196,9.50297616 8.58035714,9.50892857 C8.56845232,9.51488098 8.54315496,9.53124987 8.50446429,9.55803571 C8.46577362,9.58482156 8.44047625,9.60714277 8.42857143,9.625 C8.4107142,9.64880964 8.39285723,9.68452357 8.375,9.73214286 C8.35714277,9.77976214 8.34226196,9.81249991 8.33035714,9.83035714 C8.31845232,9.8065475 8.28422647,9.78720246 8.22767857,9.77232143 C8.17113067,9.7574404 8.14285714,9.74107152 8.14285714,9.72321429 C8.15476196,9.78273839 8.16666661,9.88690402 8.17857143,10.0357143 C8.19047625,10.1845246 8.20535705,10.2976187 8.22321429,10.375 C8.26488116,10.5595247 8.22916723,10.7023804 8.11607143,10.8035714 C7.95535634,10.9523817 7.86904768,11.0714281 7.85714286,11.1607143 C7.83333321,11.2916673 7.86904714,11.3690475 7.96428571,11.3928571 C7.96428571,11.434524 7.94047643,11.4955353 7.89285714,11.5758929 C7.84523786,11.6562504 7.82440473,11.7202379 7.83035714,11.7678571 C7.83035714,11.8035716 7.83630946,11.8511902 7.84821429,11.9107143 Z" id="Path" fill="url(#linearGradient-2)" opacity="0.5"></path>
                        </g>
                    </g>
                </g>
            </g>
        </g>
    </g>
</svg>